<svg width="118" height="108" viewBox="0 0 118 108" fill="none" xmlns="http://www.w3.org/2000/svg">
<path d="M52.86 105.72C82.0538 105.72 105.72 82.0538 105.72 52.86C105.72 23.6662 82.0538 0 52.86 0C23.6662 0 0 23.6662 0 52.86C0 82.0538 23.6662 105.72 52.86 105.72Z" fill="#F0F4F7"/>
<line x1="66.06" y1="37.6181" x2="66.06" y2="22.94" stroke="#D93464" stroke-width="1.88" stroke-linecap="round"/>
<rect x="66" y="22" width="16" height="10" rx="0.5" fill="white" stroke="#D93464" stroke-width="1.88" stroke-linecap="round" stroke-linejoin="round"/>
<path d="M45.94 105.06V53.9963L65.5 38.2082L85.06 53.9963V105.06H45.94Z" fill="white" stroke="#C4C4C4" stroke-width="1.88"/>
<path d="M21.94 68.5698C21.94 66.3276 23.7577 64.5098 26 64.5098H45.9321V105.06H23C22.4146 105.06 21.94 104.585 21.94 104V68.5698Z" fill="white" stroke="#C4C4C4" stroke-width="1.88"/>
<path d="M85.0679 64.5098H105C107.242 64.5098 109.06 66.3275 109.06 68.5698V104C109.06 104.585 108.585 105.06 108 105.06H85.0679V64.5098Z" fill="white" stroke="#C4C4C4" stroke-width="1.88"/>
<path d="M55.0563 79.2444C55.0563 73.9645 59.3365 69.6844 64.6163 69.6844H65.3489C70.6287 69.6844 74.9089 73.9645 74.9089 79.2444V105.06H55.0563V79.2444Z" stroke="#C4C4C4" stroke-width="1.88"/>
<path d="M93.347 76.5059C93.347 74.453 95.0111 72.7889 97.064 72.7889C99.1168 72.7889 100.781 74.453 100.781 76.5059V86.4321H93.347V76.5059Z" stroke="#C4C4C4" stroke-width="1.88"/>
<path d="M30.2191 76.5059C30.2191 74.453 31.8832 72.7889 33.936 72.7889C35.9889 72.7889 37.653 74.453 37.653 76.5059V86.4321H30.2191V76.5059Z" stroke="#C4C4C4" stroke-width="1.88"/>
<mask id="path-10-inside-1" fill="white">
<path d="M92.407 92.0117C92.407 91.7356 92.6308 91.5117 92.907 91.5117H101.221C101.497 91.5117 101.721 91.7356 101.721 92.0117V98.2559C101.721 98.532 101.497 98.7559 101.221 98.7559H92.907C92.6308 98.7559 92.407 98.532 92.407 98.2559V92.0117Z"/>
</mask>
<path d="M92.407 92.0117C92.407 91.7356 92.6308 91.5117 92.907 91.5117H101.221C101.497 91.5117 101.721 91.7356 101.721 92.0117V98.2559C101.721 98.532 101.497 98.7559 101.221 98.7559H92.907C92.6308 98.7559 92.407 98.532 92.407 98.2559V92.0117Z" stroke="#C4C4C4" stroke-width="3.76" mask="url(#path-10-inside-1)"/>
<mask id="path-11-inside-2" fill="white">
<path d="M29.2791 92.0117C29.2791 91.7356 29.5029 91.5117 29.7791 91.5117H38.093C38.3691 91.5117 38.593 91.7356 38.593 92.0117V98.2559C38.593 98.532 38.3691 98.7559 38.093 98.7559H29.7791C29.5029 98.7559 29.2791 98.532 29.2791 98.2559V92.0117Z"/>
</mask>
<path d="M29.2791 92.0117C29.2791 91.7356 29.5029 91.5117 29.7791 91.5117H38.093C38.3691 91.5117 38.593 91.7356 38.593 92.0117V98.2559C38.593 98.532 38.3691 98.7559 38.093 98.7559H29.7791C29.5029 98.7559 29.2791 98.532 29.2791 98.2559V92.0117Z" stroke="#C4C4C4" stroke-width="3.76" mask="url(#path-11-inside-2)"/>
<circle cx="65.5" cy="53.2095" r="5.2693" stroke="#C4C4C4" stroke-width="1.88"/>
</svg>
