<svg width="118" height="108" viewBox="0 0 118 108" fill="none" xmlns="http://www.w3.org/2000/svg">
<path d="M52.86 105.72C82.0538 105.72 105.72 82.0538 105.72 52.86C105.72 23.6662 82.0538 0 52.86 0C23.6662 0 0 23.6662 0 52.86C0 82.0538 23.6662 105.72 52.86 105.72Z" fill="#F0F4F7"/>
<path d="M93 69.1591V92.7698L60.7836 105L29 92.6917V69" fill="white"/>
<path d="M93 69.1591V92.7698L60.7836 105L29 92.6917V69" stroke="#B8C0CC" stroke-width="1.88" stroke-linecap="round" stroke-linejoin="round"/>
<path d="M111.742 67.5806L111.742 86.2902" stroke="#D93464" stroke-width="1.88" stroke-linecap="round" stroke-linejoin="round"/>
<path d="M108.219 90.694L110.961 87.2666C111.361 86.7662 112.122 86.7662 112.523 87.2666L115.265 90.694C115.407 90.8713 115.484 91.0917 115.484 91.3187V97.4518C115.484 98.0041 115.036 98.4518 114.484 98.4518H109C108.448 98.4518 108 98.0041 108 97.4518V91.3187C108 91.0917 108.077 90.8713 108.219 90.694Z" fill="white" stroke="#D93464" stroke-width="1.88"/>
<path d="M10 67L61 47L112 67L61 87L10 67Z" fill="white" stroke="#B8C0CC" stroke-width="1.88" stroke-linecap="round" stroke-linejoin="round"/>
</svg>
