<svg width="118" height="108" viewBox="0 0 118 108" fill="none" xmlns="http://www.w3.org/2000/svg">
<g clip-path="url(#clip0)">
<path d="M52.86 105.53C82.0538 105.53 105.72 81.9061 105.72 52.7649C105.72 23.6236 82.0538 0 52.86 0C23.6662 0 0 23.6236 0 52.7649C0 81.9061 23.6662 105.53 52.86 105.53Z" fill="#F0F4F7"/>
<path d="M66 97.8236H28.2406C23.1554 97.8236 19 93.7836 19 88.8398C19 83.8959 23.1554 79.856 28.2406 79.856H66" fill="#ECECEC"/>
<path d="M66 97.8236H28.2406C23.1554 97.8236 19 93.7836 19 88.8398C19 83.8959 23.1554 79.856 28.2406 79.856H66" stroke="#B8C0CC" stroke-width="2" stroke-miterlimit="10"/>
<path d="M63 59.8919L26.044 59.8919C21.067 59.8919 17 55.852 17 50.9081C17 45.9643 21.067 41.9243 26.044 41.9243L63 41.9243" fill="#ECECEC"/>
<path d="M63 59.8919L26.044 59.8919C21.067 59.8919 17 55.852 17 50.9081C17 45.9643 21.067 41.9243 26.044 41.9243L63 41.9243" stroke="#B8C0CC" stroke-width="2" stroke-miterlimit="10"/>
<path d="M56.1617 97.8236H93.5985V79.856H56.1617C51.1199 79.856 47 83.8959 47 88.8398C47 93.7836 51.1199 97.8236 56.1617 97.8236Z" fill="white"/>
<path d="M97 97.8236H93.5985M93.5985 97.8236H56.1617C51.1199 97.8236 47 93.7836 47 88.8398C47 83.8959 51.1199 79.856 56.1617 79.856H93.5985M93.5985 97.8236V79.856M93.5985 79.856L96.8683 79.856" stroke="#B8C0CC" stroke-width="2" stroke-miterlimit="10" stroke-linecap="round"/>
<path d="M53.1617 59.8919L90.5985 59.8919L90.5985 41.9243L53.1617 41.9243C48.1199 41.9243 44 45.9643 44 50.9081C44 55.852 48.1199 59.8919 53.1617 59.8919Z" fill="white"/>
<path d="M94 59.8919L90.5985 59.8919M90.5985 59.8919L53.1617 59.8919C48.1199 59.8919 44 55.852 44 50.9081C44 45.9643 48.1199 41.9243 53.1617 41.9243L90.5985 41.9243M90.5985 59.8919L90.5985 41.9243M90.5985 41.9243L93.8683 41.9243" stroke="#B8C0CC" stroke-width="2" stroke-miterlimit="10" stroke-linecap="round"/>
<path d="M59 59.8919L96.7594 59.8919C101.845 59.8919 106 64.3808 106 69.8739C106 75.3671 101.845 79.856 96.7594 79.856L59 79.856" fill="#ECECEC"/>
<path d="M59 59.8919L96.7594 59.8919C101.845 59.8919 106 64.3808 106 69.8739C106 75.3671 101.845 79.856 96.7594 79.856L59 79.856" stroke="#B8C0CC" stroke-width="2" stroke-miterlimit="10"/>
<path d="M69.4718 59.8919L30.5375 59.8919L30.5375 79.856L69.4718 79.856C74.7153 79.856 79 75.3671 79 69.8739C79 64.3808 74.7153 59.8919 69.4718 59.8919Z" fill="white"/>
<path d="M27 59.8919L30.5375 59.8919M30.5375 59.8919L69.4718 59.8919C74.7153 59.8919 79 64.3808 79 69.8739C79 75.3671 74.7153 79.856 69.4718 79.856L30.5375 79.856M30.5375 59.8919L30.5375 79.856M30.5375 79.856L27.137 79.856" stroke="#B8C0CC" stroke-width="2" stroke-miterlimit="10" stroke-linecap="round"/>
<path d="M117.743 95.6068L114.154 92.6179C114.335 91.4364 114.335 90.2345 114.154 89.053L117.743 86.064C117.873 85.9571 117.96 85.8081 117.989 85.6433C118.018 85.4785 117.988 85.3087 117.903 85.1642L114.635 79.5327C114.551 79.389 114.419 79.2792 114.262 79.2225C114.105 79.1657 113.933 79.1657 113.776 79.2223L109.386 80.8179C108.439 80.0821 107.392 79.4833 106.276 79.0393L105.468 74.4502C105.439 74.2865 105.353 74.1382 105.225 74.0315C105.097 73.9247 104.935 73.8663 104.768 73.8667H98.2317C98.0647 73.8663 97.903 73.9247 97.775 74.0315C97.647 74.1382 97.5611 74.2865 97.5323 74.4502L96.7242 79.0393C95.6087 79.4839 94.5618 80.0827 93.6143 80.8179L89.2245 79.2223C89.0674 79.1648 88.895 79.1644 88.7377 79.2212C88.5804 79.278 88.4485 79.3883 88.3652 79.5327L85.0969 85.1642C85.012 85.3087 84.9816 85.4785 85.0108 85.6433C85.0401 85.8081 85.1272 85.9571 85.2567 86.064L88.846 89.053C88.6653 90.2345 88.6653 91.4364 88.846 92.6179L85.2567 95.6068C85.1272 95.7136 85.0401 95.8627 85.0108 96.0275C84.9816 96.1923 85.012 96.3621 85.0969 96.5066L88.3652 102.138C88.4489 102.282 88.581 102.392 88.7381 102.449C88.8952 102.506 89.0674 102.505 89.2245 102.449L93.6143 100.853C94.5614 101.589 95.6084 102.188 96.7242 102.632L97.5323 107.221C97.561 107.384 97.647 107.533 97.7749 107.64C97.9029 107.747 98.0646 107.806 98.2317 107.806H104.768C104.935 107.806 105.097 107.747 105.225 107.64C105.353 107.533 105.439 107.384 105.468 107.221L106.276 102.632C107.392 102.188 108.439 101.589 109.386 100.853L113.776 102.449C113.933 102.505 114.105 102.505 114.262 102.448C114.419 102.391 114.551 102.282 114.635 102.138L117.903 96.5021C117.987 96.358 118.017 96.1893 117.987 96.0255C117.958 95.8617 117.872 95.7134 117.743 95.6068ZM101.5 97.45C100.186 97.45 98.9021 97.0624 97.8099 96.3363C96.7176 95.6103 95.8663 94.5783 95.3636 93.3708C94.8609 92.1634 94.7293 90.8348 94.9856 89.553C95.2419 88.2713 95.8745 87.0938 96.8034 86.1697C97.7323 85.2456 98.9158 84.6163 100.204 84.3613C101.493 84.1063 102.828 84.2372 104.042 84.7373C105.256 85.2375 106.293 86.0844 107.023 87.171C107.753 88.2577 108.142 89.5353 108.142 90.8422C108.14 92.5939 107.439 94.2733 106.194 95.512C104.949 96.7506 103.261 97.4476 101.5 97.45Z" fill="white" stroke="#D93464" stroke-width="1.88" stroke-linecap="round" stroke-linejoin="round"/>
</g>
<defs>
<clipPath id="clip0">
<rect width="118" height="107.806" fill="white"/>
</clipPath>
</defs>
</svg>
