<svg width="118" height="108" viewBox="0 0 118 108" fill="none" xmlns="http://www.w3.org/2000/svg">
<g clip-path="url(#clip0)">
<path d="M52.86 105.72C82.0538 105.72 105.72 82.0538 105.72 52.86C105.72 23.6662 82.0538 0 52.86 0C23.6662 0 0 23.6662 0 52.86C0 82.0538 23.6662 105.72 52.86 105.72Z" fill="#F0F4F7"/>
<path d="M91.5057 59.3747C94.8434 64.3698 96.6249 70.2424 96.6249 76.25V106.625H66.2499C60.2423 106.625 54.3695 104.843 49.3744 101.506C46.2101 99.3915 43.488 96.7129 41.3333 93.6224C38.4639 78.7924 66.1429 57.9225 80.341 49.3413C84.8305 51.6923 88.6742 55.137 91.5057 59.3747Z" fill="white" stroke="#B8C0CC" stroke-width="1.88" stroke-linecap="round" stroke-linejoin="round"/>
<path d="M22.375 62.7468C22.3756 56.7395 24.1574 50.8673 27.4953 45.8726C30.8332 40.878 35.5773 36.9852 41.1275 34.6865C46.6777 32.3879 52.7846 31.7867 58.6765 32.9588C64.5684 34.131 69.9806 37.0238 74.2284 41.2716C78.4762 45.5194 81.369 50.9314 82.5412 56.8233C83.7133 62.7152 83.1121 68.8223 80.8135 74.3725C78.5148 79.9227 74.622 84.6666 69.6274 88.0045C64.6327 91.3424 58.7605 93.1244 52.7532 93.125H22.375V62.7468Z" fill="white" stroke="#B8C0CC" stroke-width="1.88" stroke-linecap="round" stroke-linejoin="round"/>
<path d="M44.92 54.5432C44.92 53.1225 45.316 51.7337 46.0577 50.5524C46.7994 49.3712 47.8535 48.4505 49.0869 47.9068C50.3203 47.3632 51.6776 47.221 52.987 47.4982C54.2963 47.7753 55.499 48.4594 56.443 49.464C57.387 50.4686 58.0299 51.7484 58.2903 53.1418C58.5508 54.5352 58.4172 55.9796 57.9063 57.2921C57.3954 58.6047 56.5302 59.7264 55.4202 60.5157C54.3102 61.305 53.0051 61.7263 51.67 61.7263V67.6101" stroke="#D93464" stroke-width="1.88" stroke-linecap="round" stroke-linejoin="round"/>
<path d="M51.67 81.1101C53.534 81.1101 55.045 79.5991 55.045 77.7351C55.045 75.8711 53.534 74.3601 51.67 74.3601C49.8061 74.3601 48.295 75.8711 48.295 77.7351C48.295 79.5991 49.8061 81.1101 51.67 81.1101Z" fill="#D93464"/>
</g>
<defs>
<clipPath id="clip0">
<rect width="118" height="108" fill="white"/>
</clipPath>
</defs>
</svg>
