<svg width="118" height="108" viewBox="0 0 118 108" fill="none" xmlns="http://www.w3.org/2000/svg">
<path d="M52.86 105.72C82.0538 105.72 105.72 82.0538 105.72 52.86C105.72 23.6662 82.0538 0 52.86 0C23.6662 0 0 23.6662 0 52.86C0 82.0538 23.6662 105.72 52.86 105.72Z" fill="#F0F4F7"/>
<path d="M50.5399 34.0108C51.3108 33.1724 52.3985 32.6963 53.5375 32.6988L93.3893 32.787C95.6301 32.792 97.4433 34.6116 97.4403 36.8525L97.3519 102.468C97.3489 104.711 95.5269 106.527 93.2834 106.522L46.0514 106.422C43.8105 106.418 41.9971 104.598 42 102.357L42.0741 44.7954C42.0754 43.7792 42.4577 42.8006 43.1455 42.0526L50.5399 34.0108Z" fill="white" stroke="#B8C0CC" stroke-width="1.88" stroke-linecap="round" stroke-linejoin="round"/>
<path d="M52.9934 64.5261L86.1878 64.5964" stroke="#E5E5E5" stroke-width="4" stroke-linecap="round"/>
<path d="M52.9934 76.0522L86.1878 76.1225" stroke="#E5E5E5" stroke-width="4" stroke-linecap="round"/>
<path d="M52.9934 88.3962L86.1878 88.4665" stroke="#E5E5E5" stroke-width="4" stroke-linecap="round"/>
<path d="M52.9739 51.4377H77.5148" stroke="#E5E5E5" stroke-width="4" stroke-linecap="round"/>
<path d="M97.1974 27.2054L79.9156 44.2136L78.3328 51.3075L85.5156 49.7718L102.264 33.2868C103.099 32.4852 103.577 31.3888 103.594 30.2386C103.723 28.8373 102.821 27.5978 102.354 27.1533C101.663 26.4847 100.732 26.1146 99.7649 26.1244C98.7979 26.1341 97.8745 26.523 97.1974 27.2054Z" fill="white" stroke="#D93464" stroke-width="1.88" stroke-linecap="round" stroke-linejoin="round"/>
<path d="M95.7241 29.2686L100.445 34.0098" stroke="#D93464" stroke-width="1.88" stroke-linecap="round" stroke-linejoin="round"/>
<path d="M80.6184 44.0635L85.3396 48.8047" stroke="#D93464" stroke-width="1.88" stroke-linecap="round" stroke-linejoin="round"/>
<path d="M42.3395 42.8494L51.3384 33.0324L52.1565 43.2584L42.3395 42.8494Z" stroke="#B8C0CC" stroke-width="1.88" stroke-linecap="round" stroke-linejoin="round"/>
</svg>
