<svg width="118" height="108" viewBox="0 0 118 108" fill="none" xmlns="http://www.w3.org/2000/svg">
<path d="M52.86 105.72C82.0538 105.72 105.72 82.0538 105.72 52.86C105.72 23.6662 82.0538 0 52.86 0C23.6662 0 0 23.6662 0 52.86C0 82.0538 23.6662 105.72 52.86 105.72Z" fill="#F0F4F7"/>
<rect x="15.94" y="29.94" width="54.12" height="39.6684" rx="1.06" fill="white" stroke="#C4C4C4" stroke-width="1.88"/>
<path d="M30 55.5483L56 55.5483" stroke="#D4D9E0" stroke-width="1.88" stroke-linecap="round"/>
<path d="M36 61.5483H50" stroke="#D4D9E0" stroke-width="1.88" stroke-linecap="round"/>
<path d="M43.0001 36.2258L44.4196 40.5946H49.0132L45.2969 43.2947L46.7164 47.6635L43.0001 44.9634L39.2838 47.6635L40.7033 43.2947L36.9869 40.5946H41.5806L43.0001 36.2258Z" fill="#D4D9E0"/>
<path d="M87.6384 91.0591C83.8086 86.8038 82.8512 79.0023 82.8512 75.6335H71.681C72.1065 81.591 68.3122 88.3995 66.3618 91.0591H87.6384Z" fill="white" stroke="#D93464" stroke-width="1.88"/>
<mask id="path-7-inside-1" fill="white">
<path d="M90.2979 106.548C90.2979 107.101 89.8501 107.548 89.2979 107.548L64.7021 107.548C64.1498 107.548 63.7021 107.101 63.7021 106.548L63.7021 89.2717C63.7021 87.6149 65.0453 86.2717 66.7021 86.2717L87.2978 86.2717C88.9547 86.2717 90.2978 87.6149 90.2978 89.2717L90.2979 106.548Z"/>
</mask>
<path d="M90.2979 106.548C90.2979 107.101 89.8501 107.548 89.2979 107.548L64.7021 107.548C64.1498 107.548 63.7021 107.101 63.7021 106.548L63.7021 89.2717C63.7021 87.6149 65.0453 86.2717 66.7021 86.2717L87.2978 86.2717C88.9547 86.2717 90.2978 87.6149 90.2978 89.2717L90.2979 106.548Z" fill="white" stroke="#D93464" stroke-width="3.76" mask="url(#path-7-inside-1)"/>
<path d="M91.7163 56.6083C91.4521 56.6083 91.2379 56.3941 91.2379 56.1299L91.2379 43.0093C91.2379 42.7451 91.4521 42.5309 91.7163 42.5309L94.0213 42.5309C97.9086 42.5309 101.06 45.6822 101.06 49.5696C101.06 53.457 97.9086 56.6083 94.0213 56.6083L91.7163 56.6083Z" fill="white" stroke="#D93464" stroke-width="1.88"/>
<path d="M62.2837 42.5306C62.5479 42.5306 62.7621 42.7448 62.7621 43.009L62.7621 56.1296C62.7621 56.3938 62.5479 56.608 62.2837 56.608L59.9787 56.608C56.0914 56.608 52.94 53.4567 52.94 49.5693C52.94 45.6819 56.0914 42.5306 59.9787 42.5306L62.2837 42.5306Z" fill="white" stroke="#D93464" stroke-width="1.88"/>
<path d="M62.5145 38.2717C62.5145 37.6863 62.989 37.2117 63.5745 37.2117H90.4255C91.0109 37.2117 91.4855 37.6863 91.4855 38.2717V62.3356C91.4855 70.3357 85.0001 76.8211 77 76.8211C68.9999 76.8211 62.5145 70.3357 62.5145 62.3355V38.2717Z" fill="white" stroke="#D93464" stroke-width="1.88"/>
</svg>
