<svg width="609" height="416" viewBox="0 0 609 416" fill="none" xmlns="http://www.w3.org/2000/svg">
<g filter="url(#filter0_d)">
<path d="M479.266 80.5H67.4779V22.6C67.4779 14.8 73.764 8.5 81.5468 8.5H464.898C472.781 8.5 479.266 14.9 479.266 22.9V80.5Z" fill="#D93464"/>
<path d="M66.9779 56H478.766V341C478.766 348.732 472.498 355 464.766 355H80.9779C73.2459 355 66.9779 348.732 66.9779 341V56Z" fill="white"/>
<path opacity="0.16" d="M438.087 44.2C445.208 44.2 450.98 38.4245 450.98 31.3C450.98 24.1756 445.208 18.4 438.087 18.4C430.966 18.4 425.194 24.1756 425.194 31.3C425.194 38.4245 430.966 44.2 438.087 44.2Z" fill="white"/>
<mask id="mask0" mask-type="alpha" maskUnits="userSpaceOnUse" x="425" y="18" width="26" height="27">
<path d="M438.087 44.2C445.208 44.2 450.98 38.4245 450.98 31.3C450.98 24.1756 445.208 18.4 438.087 18.4C430.966 18.4 425.194 24.1756 425.194 31.3C425.194 38.4245 430.966 44.2 438.087 44.2Z" fill="white"/>
</mask>
<g mask="url(#mask0)">
<path d="M438.087 34.3C440.571 34.3 442.585 32.2853 442.585 29.8C442.585 27.3148 440.571 25.3 438.087 25.3C435.603 25.3 433.589 27.3148 433.589 29.8C433.589 32.2853 435.603 34.3 438.087 34.3Z" stroke="white" stroke-width="1.88" stroke-miterlimit="10"/>
<path d="M446.483 41.7001C445.983 37.5001 442.385 34.3 438.087 34.3C433.789 34.3 430.191 37.5001 429.691 41.7001" stroke="white" stroke-width="1.88" stroke-miterlimit="10"/>
</g>
<path opacity="0.16" d="M143.039 42.4H109.656C103.759 42.4 98.9614 37.6 98.9614 31.7C98.9614 25.8 103.759 21 109.656 21H143.139C149.036 21 153.833 25.8 153.833 31.7C153.833 37.6 149.036 42.4 143.039 42.4Z" fill="white"/>
<rect opacity="0.12" x="118.951" y="129" width="93.9517" height="14" rx="7" fill="#D93464"/>
<rect opacity="0.12" x="98.9614" y="129" width="13.9928" height="14" rx="6.99641" fill="#D93464"/>
<rect opacity="0.06" x="98.9614" y="153" width="213.89" height="62" rx="6" fill="#D93464"/>
<path d="M216.751 200.55C221.001 200.55 224.447 197.103 224.447 192.85C224.447 188.597 221.001 185.15 216.751 185.15C212.501 185.15 209.055 188.597 209.055 192.85C209.055 197.103 212.501 200.55 216.751 200.55Z" stroke="#D93464" stroke-width="1.88" stroke-linecap="round" stroke-linejoin="round"/>
<path d="M216.751 188.65V193.025L219.55 195.65" stroke="#D93464" stroke-width="1.88" stroke-linecap="round" stroke-linejoin="round"/>
<rect opacity="0.16" x="142.939" y="170" width="58.9697" height="9" rx="4.5" fill="#D93464"/>
<rect opacity="0.16" x="142.939" y="188" width="58.9697" height="9" rx="4.5" fill="#D93464"/>
<rect opacity="0.16" x="281.867" y="170" width="21.9887" height="9" rx="4.5" fill="#D93464"/>
<g opacity="0.16" filter="url(#filter1_d)">
<rect x="379.817" y="26" width="35.9815" height="13" rx="6.5" fill="white"/>
</g>
<g opacity="0.5" filter="url(#filter2_d)">
<rect x="337.839" y="26" width="35.9815" height="13" rx="6.5" fill="white"/>
</g>
<g opacity="0.16" filter="url(#filter3_d)">
<rect x="295.86" y="26" width="35.9815" height="13" rx="6.5" fill="white"/>
</g>
<path opacity="0.15" d="M342.836 117L342.836 290" stroke="#D93464" stroke-width="1.88" stroke-linecap="round"/>
<rect opacity="0.12" x="359.827" y="129" width="61.9682" height="7" rx="3.5" fill="#D93464"/>
<rect opacity="0.12" x="359.827" y="183" width="61.9682" height="7" rx="3.5" fill="#D93464"/>
<rect opacity="0.12" x="359.827" y="244" width="61.9682" height="7" rx="3.5" fill="#D93464"/>
<rect opacity="0.12" x="359.827" y="142" width="39.9795" height="7" rx="3.5" fill="#D93464"/>
<rect opacity="0.12" x="359.827" y="197" width="39.9795" height="7" rx="3.5" fill="#D93464"/>
<path d="M458.837 189.816C458.837 190.669 458.539 191.389 457.941 191.976C457.355 192.563 456.56 192.931 455.557 193.08V194.088C455.557 194.333 455.483 194.531 455.333 194.68C455.184 194.84 454.987 194.92 454.741 194.92C454.496 194.92 454.299 194.84 454.149 194.68C454 194.531 453.925 194.333 453.925 194.088V193.112C453.317 193.059 452.725 192.931 452.149 192.728C451.573 192.525 451.077 192.259 450.661 191.928C450.523 191.832 450.427 191.725 450.373 191.608C450.32 191.491 450.293 191.347 450.293 191.176C450.293 190.952 450.357 190.755 450.485 190.584C450.624 190.413 450.779 190.328 450.949 190.328C451.056 190.328 451.152 190.349 451.237 190.392C451.333 190.424 451.456 190.483 451.605 190.568C452.096 190.888 452.576 191.123 453.045 191.272C453.525 191.421 454.027 191.496 454.549 191.496C455.264 191.496 455.813 191.357 456.197 191.08C456.592 190.803 456.789 190.403 456.789 189.88C456.789 189.571 456.683 189.32 456.469 189.128C456.256 188.936 455.989 188.787 455.669 188.68C455.349 188.563 454.901 188.429 454.325 188.28C453.525 188.077 452.875 187.875 452.373 187.672C451.872 187.459 451.44 187.139 451.077 186.712C450.715 186.285 450.533 185.709 450.533 184.984C450.533 184.12 450.843 183.384 451.461 182.776C452.08 182.168 452.891 181.789 453.893 181.64V180.632C453.893 180.387 453.968 180.189 454.117 180.04C454.267 179.88 454.464 179.8 454.709 179.8C454.955 179.8 455.152 179.88 455.301 180.04C455.451 180.189 455.525 180.387 455.525 180.632V181.624C456.603 181.763 457.531 182.152 458.309 182.792C458.565 182.984 458.693 183.235 458.693 183.544C458.693 183.768 458.624 183.965 458.485 184.136C458.357 184.307 458.203 184.392 458.021 184.392C457.925 184.392 457.829 184.376 457.733 184.344C457.648 184.312 457.531 184.248 457.381 184.152C456.944 183.843 456.528 183.613 456.133 183.464C455.749 183.304 455.291 183.224 454.757 183.224C454.096 183.224 453.568 183.373 453.173 183.672C452.779 183.96 452.581 184.36 452.581 184.872C452.581 185.224 452.693 185.512 452.917 185.736C453.141 185.949 453.424 186.115 453.765 186.232C454.107 186.349 454.571 186.483 455.157 186.632C455.936 186.824 456.571 187.021 457.061 187.224C457.552 187.427 457.968 187.736 458.309 188.152C458.661 188.557 458.837 189.112 458.837 189.816Z" fill="#11ABD5"/>
<path d="M458.837 249.816C458.837 250.669 458.539 251.389 457.941 251.976C457.355 252.563 456.56 252.931 455.557 253.08V254.088C455.557 254.333 455.483 254.531 455.333 254.68C455.184 254.84 454.987 254.92 454.741 254.92C454.496 254.92 454.299 254.84 454.149 254.68C454 254.531 453.925 254.333 453.925 254.088V253.112C453.317 253.059 452.725 252.931 452.149 252.728C451.573 252.525 451.077 252.259 450.661 251.928C450.523 251.832 450.427 251.725 450.373 251.608C450.32 251.491 450.293 251.347 450.293 251.176C450.293 250.952 450.357 250.755 450.485 250.584C450.624 250.413 450.779 250.328 450.949 250.328C451.056 250.328 451.152 250.349 451.237 250.392C451.333 250.424 451.456 250.483 451.605 250.568C452.096 250.888 452.576 251.123 453.045 251.272C453.525 251.421 454.027 251.496 454.549 251.496C455.264 251.496 455.813 251.357 456.197 251.08C456.592 250.803 456.789 250.403 456.789 249.88C456.789 249.571 456.683 249.32 456.469 249.128C456.256 248.936 455.989 248.787 455.669 248.68C455.349 248.563 454.901 248.429 454.325 248.28C453.525 248.077 452.875 247.875 452.373 247.672C451.872 247.459 451.44 247.139 451.077 246.712C450.715 246.285 450.533 245.709 450.533 244.984C450.533 244.12 450.843 243.384 451.461 242.776C452.08 242.168 452.891 241.789 453.893 241.64V240.632C453.893 240.387 453.968 240.189 454.117 240.04C454.267 239.88 454.464 239.8 454.709 239.8C454.955 239.8 455.152 239.88 455.301 240.04C455.451 240.189 455.525 240.387 455.525 240.632V241.624C456.603 241.763 457.531 242.152 458.309 242.792C458.565 242.984 458.693 243.235 458.693 243.544C458.693 243.768 458.624 243.965 458.485 244.136C458.357 244.307 458.203 244.392 458.021 244.392C457.925 244.392 457.829 244.376 457.733 244.344C457.648 244.312 457.531 244.248 457.381 244.152C456.944 243.843 456.528 243.613 456.133 243.464C455.749 243.304 455.291 243.224 454.757 243.224C454.096 243.224 453.568 243.373 453.173 243.672C452.779 243.96 452.581 244.36 452.581 244.872C452.581 245.224 452.693 245.512 452.917 245.736C453.141 245.949 453.424 246.115 453.765 246.232C454.107 246.349 454.571 246.483 455.157 246.632C455.936 246.824 456.571 247.021 457.061 247.224C457.552 247.427 457.968 247.736 458.309 248.152C458.661 248.557 458.837 249.112 458.837 249.816Z" fill="#D93464"/>
<path opacity="0.15" d="M359.827 168L460.776 168" stroke="#D93464" stroke-linecap="round"/>
<path opacity="0.15" d="M359.827 227L460.776 227" stroke="#D93464" stroke-width="1.88" stroke-linecap="round"/>
<rect x="107.957" y="170" width="26.9861" height="27" rx="3" fill="#F7D4DF"/>
<path d="M441.489 304H380.046C377.165 304 374.82 306.378 374.82 309.299V323.701C374.82 326.622 377.165 329 380.046 329H441.556C444.438 329 446.783 326.622 446.783 323.701V309.299C446.783 306.378 444.371 304 441.489 304Z" fill="#D93464"/>
<path d="M399.461 315.54C400.071 315.71 400.541 316.02 400.871 316.47C401.211 316.92 401.381 317.47 401.381 318.12C401.381 319.02 401.056 319.725 400.406 320.235C399.766 320.745 398.881 321 397.751 321H393.881C393.591 321 393.361 320.92 393.191 320.76C393.031 320.6 392.951 320.375 392.951 320.085V311.34C392.951 311.05 393.031 310.825 393.191 310.665C393.361 310.505 393.591 310.425 393.881 310.425H397.601C398.701 310.425 399.561 310.67 400.181 311.16C400.811 311.64 401.126 312.315 401.126 313.185C401.126 313.745 400.976 314.23 400.676 314.64C400.386 315.05 399.981 315.35 399.461 315.54ZM394.841 314.88H397.286C398.616 314.88 399.281 314.385 399.281 313.395C399.281 312.895 399.116 312.525 398.786 312.285C398.456 312.045 397.956 311.925 397.286 311.925H394.841V314.88ZM397.541 319.5C398.241 319.5 398.751 319.375 399.071 319.125C399.391 318.875 399.551 318.485 399.551 317.955C399.551 317.425 399.386 317.03 399.056 316.77C398.736 316.51 398.231 316.38 397.541 316.38H394.841V319.5H397.541ZM406.37 321.12C405.62 321.12 404.96 320.965 404.39 320.655C403.83 320.345 403.395 319.9 403.085 319.32C402.775 318.74 402.62 318.065 402.62 317.295C402.62 316.525 402.775 315.855 403.085 315.285C403.395 314.705 403.83 314.26 404.39 313.95C404.96 313.64 405.62 313.485 406.37 313.485C407.12 313.485 407.775 313.64 408.335 313.95C408.905 314.26 409.34 314.705 409.64 315.285C409.95 315.855 410.105 316.525 410.105 317.295C410.105 318.065 409.95 318.74 409.64 319.32C409.34 319.9 408.905 320.345 408.335 320.655C407.775 320.965 407.12 321.12 406.37 321.12ZM406.355 319.665C406.965 319.665 407.43 319.465 407.75 319.065C408.07 318.665 408.23 318.075 408.23 317.295C408.23 316.525 408.07 315.94 407.75 315.54C407.43 315.13 406.97 314.925 406.37 314.925C405.77 314.925 405.305 315.13 404.975 315.54C404.655 315.94 404.495 316.525 404.495 317.295C404.495 318.075 404.655 318.665 404.975 319.065C405.295 319.465 405.755 319.665 406.355 319.665ZM414.998 321.12C414.248 321.12 413.588 320.965 413.018 320.655C412.458 320.345 412.023 319.9 411.713 319.32C411.403 318.74 411.248 318.065 411.248 317.295C411.248 316.525 411.403 315.855 411.713 315.285C412.023 314.705 412.458 314.26 413.018 313.95C413.588 313.64 414.248 313.485 414.998 313.485C415.748 313.485 416.403 313.64 416.963 313.95C417.533 314.26 417.968 314.705 418.268 315.285C418.578 315.855 418.733 316.525 418.733 317.295C418.733 318.065 418.578 318.74 418.268 319.32C417.968 319.9 417.533 320.345 416.963 320.655C416.403 320.965 415.748 321.12 414.998 321.12ZM414.983 319.665C415.593 319.665 416.058 319.465 416.378 319.065C416.698 318.665 416.858 318.075 416.858 317.295C416.858 316.525 416.698 315.94 416.378 315.54C416.058 315.13 415.598 314.925 414.998 314.925C414.398 314.925 413.933 315.13 413.603 315.54C413.283 315.94 413.123 316.525 413.123 317.295C413.123 318.075 413.283 318.665 413.603 319.065C413.923 319.465 414.383 319.665 414.983 319.665ZM426.806 319.545C427.006 319.735 427.106 319.95 427.106 320.19C427.106 320.42 427.021 320.625 426.851 320.805C426.691 320.985 426.501 321.075 426.281 321.075C426.061 321.075 425.856 320.985 425.666 320.805L422.156 317.625V320.19C422.156 320.48 422.066 320.7 421.886 320.85C421.706 321 421.481 321.075 421.211 321.075C420.941 321.075 420.716 321 420.536 320.85C420.366 320.7 420.281 320.48 420.281 320.19V311.235C420.281 310.945 420.366 310.725 420.536 310.575C420.716 310.425 420.941 310.35 421.211 310.35C421.481 310.35 421.706 310.425 421.886 310.575C422.066 310.725 422.156 310.945 422.156 311.235V316.875L425.366 313.8C425.546 313.62 425.751 313.53 425.981 313.53C426.211 313.53 426.411 313.615 426.581 313.785C426.751 313.955 426.836 314.155 426.836 314.385C426.836 314.615 426.741 314.825 426.551 315.015L424.196 317.205L426.806 319.545Z" fill="white"/>
</g>
<g filter="url(#filter4_d)">
<rect x="437.787" y="44" width="146.924" height="181" rx="10" fill="white"/>
</g>
<path opacity="0.1" d="M437.787 90H584.712" stroke="#D51158" stroke-width="2" stroke-miterlimit="10"/>
<path d="M490.635 74.144C489.089 74.144 487.915 73.744 487.115 72.944C486.315 72.144 485.915 70.976 485.915 69.44V63.664C485.915 63.3547 486.006 63.1093 486.187 62.928C486.369 62.736 486.614 62.64 486.923 62.64C487.233 62.64 487.478 62.736 487.659 62.928C487.841 63.1093 487.931 63.3547 487.931 63.664V69.552C487.931 70.5227 488.161 71.2587 488.619 71.76C489.078 72.2507 489.75 72.496 490.635 72.496C491.51 72.496 492.177 72.2453 492.635 71.744C493.094 71.2427 493.323 70.512 493.323 69.552V63.664C493.323 63.3547 493.414 63.1093 493.595 62.928C493.777 62.736 494.022 62.64 494.331 62.64C494.641 62.64 494.886 62.736 495.067 62.928C495.249 63.1093 495.339 63.3547 495.339 63.664V69.44C495.339 70.9653 494.939 72.1333 494.139 72.944C493.339 73.744 492.171 74.144 490.635 74.144ZM501.618 74.144C500.796 74.144 500.018 74.0373 499.282 73.824C498.556 73.6 497.964 73.3013 497.506 72.928C497.26 72.7467 497.138 72.4907 497.138 72.16C497.138 71.936 497.202 71.744 497.33 71.584C497.468 71.4133 497.628 71.328 497.81 71.328C498.002 71.328 498.22 71.4027 498.466 71.552C498.924 71.8827 499.404 72.1227 499.906 72.272C500.407 72.4213 500.962 72.496 501.57 72.496C502.348 72.496 502.946 72.3627 503.362 72.096C503.778 71.8187 503.986 71.4187 503.986 70.896C503.986 70.4907 503.788 70.1813 503.394 69.968C503.01 69.744 502.364 69.5307 501.458 69.328C500.519 69.1253 499.756 68.8907 499.17 68.624C498.583 68.3573 498.14 68.016 497.842 67.6C497.543 67.184 497.394 66.656 497.394 66.016C497.394 65.3547 497.58 64.7627 497.954 64.24C498.327 63.7173 498.844 63.312 499.506 63.024C500.178 62.7253 500.93 62.576 501.762 62.576C503.287 62.576 504.53 62.9813 505.49 63.792C505.628 63.9093 505.724 64.0267 505.778 64.144C505.842 64.2507 505.874 64.3893 505.874 64.56C505.874 64.784 505.804 64.9813 505.666 65.152C505.538 65.312 505.383 65.392 505.202 65.392C505.095 65.392 504.994 65.376 504.898 65.344C504.812 65.312 504.695 65.2533 504.546 65.168C504.108 64.848 503.682 64.6133 503.266 64.464C502.86 64.304 502.359 64.224 501.762 64.224C501.036 64.224 500.46 64.3733 500.034 64.672C499.618 64.96 499.41 65.3653 499.41 65.888C499.41 66.3253 499.596 66.6613 499.97 66.896C500.343 67.1307 500.978 67.3493 501.874 67.552C502.823 67.7653 503.591 68.0053 504.178 68.272C504.775 68.528 505.228 68.8587 505.538 69.264C505.858 69.6693 506.018 70.176 506.018 70.784C506.018 71.4453 505.831 72.032 505.458 72.544C505.095 73.0453 504.578 73.44 503.906 73.728C503.244 74.0053 502.482 74.144 501.618 74.144ZM513.252 74C512.943 74 512.698 73.9147 512.516 73.744C512.346 73.5733 512.26 73.3333 512.26 73.024V63.696C512.26 63.3867 512.346 63.1467 512.516 62.976C512.698 62.8053 512.943 62.72 513.252 62.72H519.028C519.338 62.72 519.578 62.7893 519.748 62.928C519.919 63.0667 520.004 63.264 520.004 63.52C520.004 63.7867 519.919 63.9947 519.748 64.144C519.578 64.2827 519.338 64.352 519.028 64.352H514.276V67.456H518.708C519.018 67.456 519.258 67.5253 519.428 67.664C519.599 67.8027 519.684 68.0053 519.684 68.272C519.684 68.528 519.599 68.7253 519.428 68.864C519.258 69.0027 519.018 69.072 518.708 69.072H514.276V72.368H519.028C519.338 72.368 519.578 72.4427 519.748 72.592C519.919 72.7307 520.004 72.9333 520.004 73.2C520.004 73.456 519.919 73.6533 519.748 73.792C519.578 73.9307 519.338 74 519.028 74H513.252ZM524.898 65.984C525.986 65.984 526.792 66.256 527.314 66.8C527.848 67.3333 528.114 68.1493 528.114 69.248V73.152C528.114 73.44 528.029 73.6693 527.858 73.84C527.688 74 527.453 74.08 527.154 74.08C526.877 74.08 526.648 73.9947 526.466 73.824C526.296 73.6533 526.21 73.4293 526.21 73.152V72.8C526.029 73.216 525.741 73.5413 525.346 73.776C524.962 74.0107 524.514 74.128 524.002 74.128C523.48 74.128 523.005 74.0213 522.578 73.808C522.152 73.5947 521.816 73.3013 521.57 72.928C521.325 72.5547 521.202 72.1387 521.202 71.68C521.202 71.104 521.346 70.6507 521.634 70.32C521.933 69.9893 522.413 69.7493 523.074 69.6C523.736 69.4507 524.648 69.376 525.81 69.376H526.21V69.008C526.21 68.4853 526.098 68.1067 525.874 67.872C525.65 67.6267 525.288 67.504 524.786 67.504C524.477 67.504 524.162 67.552 523.842 67.648C523.522 67.7333 523.144 67.8613 522.706 68.032C522.429 68.1707 522.226 68.24 522.098 68.24C521.906 68.24 521.746 68.1707 521.618 68.032C521.501 67.8933 521.442 67.712 521.442 67.488C521.442 67.3067 521.485 67.152 521.57 67.024C521.666 66.8853 521.821 66.7573 522.034 66.64C522.408 66.4373 522.85 66.2773 523.362 66.16C523.885 66.0427 524.397 65.984 524.898 65.984ZM524.402 72.688C524.936 72.688 525.368 72.512 525.698 72.16C526.04 71.7973 526.21 71.3333 526.21 70.768V70.432H525.922C525.208 70.432 524.653 70.464 524.258 70.528C523.864 70.592 523.581 70.704 523.41 70.864C523.24 71.024 523.154 71.2427 523.154 71.52C523.154 71.8613 523.272 72.144 523.506 72.368C523.752 72.5813 524.05 72.688 524.402 72.688ZM532.979 74.128C531.816 74.128 530.878 73.8987 530.163 73.44C529.822 73.2373 529.651 72.9493 529.651 72.576C529.651 72.3627 529.71 72.192 529.827 72.064C529.944 71.9253 530.088 71.856 530.259 71.856C530.44 71.856 530.691 71.9413 531.011 72.112C531.352 72.272 531.662 72.3947 531.939 72.48C532.227 72.5653 532.59 72.608 533.027 72.608C533.475 72.608 533.822 72.5333 534.067 72.384C534.323 72.2347 534.451 72.0267 534.451 71.76C534.451 71.5787 534.398 71.4347 534.291 71.328C534.195 71.2213 534.014 71.1253 533.747 71.04C533.491 70.944 533.096 70.8373 532.563 70.72C531.614 70.528 530.931 70.256 530.515 69.904C530.11 69.552 529.907 69.0667 529.907 68.448C529.907 67.9787 530.046 67.5573 530.323 67.184C530.6 66.8 530.979 66.5067 531.459 66.304C531.95 66.0907 532.504 65.984 533.123 65.984C533.571 65.984 534.003 66.0427 534.419 66.16C534.835 66.2667 535.208 66.4267 535.539 66.64C535.88 66.8533 536.051 67.136 536.051 67.488C536.051 67.7013 535.992 67.8827 535.875 68.032C535.758 68.1707 535.614 68.24 535.443 68.24C535.326 68.24 535.208 68.2187 535.091 68.176C534.984 68.1227 534.846 68.048 534.675 67.952C534.366 67.792 534.099 67.6747 533.875 67.6C533.651 67.5147 533.374 67.472 533.043 67.472C532.648 67.472 532.334 67.552 532.099 67.712C531.875 67.872 531.763 68.0907 531.763 68.368C531.763 68.6347 531.88 68.8373 532.115 68.976C532.35 69.1147 532.803 69.2533 533.475 69.392C534.19 69.5413 534.75 69.712 535.155 69.904C535.56 70.096 535.848 70.336 536.019 70.624C536.2 70.912 536.291 71.28 536.291 71.728C536.291 72.4533 535.987 73.0347 535.379 73.472C534.782 73.9093 533.982 74.128 532.979 74.128ZM541.898 72.608C542.432 72.64 542.698 72.88 542.698 73.328C542.698 73.584 542.592 73.7813 542.378 73.92C542.176 74.048 541.882 74.1013 541.498 74.08L541.066 74.048C539.274 73.92 538.378 72.96 538.378 71.168V67.68H537.578C537.29 67.68 537.066 67.616 536.906 67.488C536.757 67.36 536.682 67.1733 536.682 66.928C536.682 66.6827 536.757 66.496 536.906 66.368C537.066 66.24 537.29 66.176 537.578 66.176H538.378V64.704C538.378 64.416 538.469 64.1867 538.65 64.016C538.832 63.8453 539.077 63.76 539.386 63.76C539.685 63.76 539.925 63.8453 540.106 64.016C540.288 64.1867 540.378 64.416 540.378 64.704V66.176H541.738C542.026 66.176 542.245 66.24 542.394 66.368C542.554 66.496 542.634 66.6827 542.634 66.928C542.634 67.1733 542.554 67.36 542.394 67.488C542.245 67.616 542.026 67.68 541.738 67.68H540.378V71.312C540.378 72.1013 540.741 72.5227 541.466 72.576L541.898 72.608ZM549.933 71.856C550.114 71.856 550.258 71.9253 550.365 72.064C550.482 72.2027 550.541 72.3893 550.541 72.624C550.541 72.9547 550.343 73.232 549.949 73.456C549.586 73.6587 549.175 73.824 548.717 73.952C548.258 74.0693 547.821 74.128 547.405 74.128C546.146 74.128 545.149 73.7653 544.413 73.04C543.677 72.3147 543.309 71.3227 543.309 70.064C543.309 69.264 543.469 68.5547 543.789 67.936C544.109 67.3173 544.557 66.8373 545.133 66.496C545.719 66.1547 546.381 65.984 547.117 65.984C547.821 65.984 548.434 66.1387 548.957 66.448C549.479 66.7573 549.885 67.1947 550.173 67.76C550.461 68.3253 550.605 68.992 550.605 69.76C550.605 70.2187 550.402 70.448 549.997 70.448H545.277C545.341 71.184 545.549 71.728 545.901 72.08C546.253 72.4213 546.765 72.592 547.437 72.592C547.778 72.592 548.077 72.5493 548.333 72.464C548.599 72.3787 548.898 72.2613 549.229 72.112C549.549 71.9413 549.783 71.856 549.933 71.856ZM547.165 67.392C546.621 67.392 546.183 67.5627 545.853 67.904C545.533 68.2453 545.341 68.736 545.277 69.376H548.893C548.871 68.7253 548.711 68.2347 548.413 67.904C548.114 67.5627 547.698 67.392 547.165 67.392ZM556.609 66.016C556.886 65.9947 557.105 66.0533 557.265 66.192C557.425 66.3307 557.505 66.5387 557.505 66.816C557.505 67.104 557.435 67.3173 557.297 67.456C557.158 67.5947 556.907 67.6853 556.545 67.728L556.065 67.776C555.435 67.84 554.971 68.0533 554.673 68.416C554.385 68.7787 554.241 69.232 554.241 69.776V73.136C554.241 73.4453 554.145 73.6853 553.953 73.856C553.761 74.016 553.521 74.096 553.233 74.096C552.945 74.096 552.705 74.016 552.513 73.856C552.331 73.6853 552.241 73.4453 552.241 73.136V66.944C552.241 66.6453 552.331 66.416 552.513 66.256C552.705 66.096 552.939 66.016 553.217 66.016C553.494 66.016 553.718 66.096 553.889 66.256C554.059 66.4053 554.145 66.624 554.145 66.912V67.552C554.347 67.0827 554.646 66.72 555.041 66.464C555.446 66.208 555.894 66.064 556.385 66.032L556.609 66.016ZM562.91 65.984C563.848 65.984 564.547 66.2507 565.006 66.784C565.464 67.3173 565.694 68.1227 565.694 69.2V73.136C565.694 73.4347 565.603 73.6693 565.422 73.84C565.251 74.0107 565.011 74.096 564.702 74.096C564.392 74.096 564.147 74.0107 563.966 73.84C563.784 73.6693 563.694 73.4347 563.694 73.136V69.312C563.694 68.704 563.576 68.2613 563.342 67.984C563.118 67.7067 562.76 67.568 562.27 67.568C561.694 67.568 561.23 67.7493 560.878 68.112C560.536 68.4747 560.366 68.96 560.366 69.568V73.136C560.366 73.4347 560.275 73.6693 560.094 73.84C559.912 74.0107 559.667 74.096 559.358 74.096C559.048 74.096 558.803 74.0107 558.622 73.84C558.451 73.6693 558.366 73.4347 558.366 73.136V66.944C558.366 66.6667 558.456 66.4427 558.638 66.272C558.819 66.1013 559.064 66.016 559.374 66.016C559.651 66.016 559.875 66.1013 560.046 66.272C560.227 66.432 560.318 66.6453 560.318 66.912V67.344C560.584 66.9067 560.942 66.5707 561.39 66.336C561.838 66.1013 562.344 65.984 562.91 65.984Z" fill="#D93464"/>
<path d="M487.912 156.272C488.168 156.272 488.384 156.36 488.56 156.536C488.736 156.696 488.824 156.904 488.824 157.16C488.824 157.416 488.736 157.632 488.56 157.808C488.384 157.968 488.168 158.048 487.912 158.048H483.856V162.104C483.856 162.36 483.768 162.576 483.592 162.752C483.432 162.928 483.224 163.016 482.968 163.016C482.712 163.016 482.496 162.928 482.32 162.752C482.16 162.576 482.08 162.36 482.08 162.104V158.048H478.024C477.768 158.048 477.552 157.96 477.376 157.784C477.2 157.608 477.112 157.4 477.112 157.16C477.112 156.904 477.2 156.696 477.376 156.536C477.552 156.36 477.768 156.272 478.024 156.272H482.08V152.216C482.08 151.96 482.16 151.744 482.32 151.568C482.496 151.392 482.712 151.304 482.968 151.304C483.224 151.304 483.432 151.392 483.592 151.568C483.768 151.744 483.856 151.96 483.856 152.216V156.272H487.912ZM508.559 147.08C508.911 147.08 509.175 147.176 509.351 147.368C509.543 147.56 509.639 147.808 509.639 148.112C509.639 148.4 509.551 148.704 509.375 149.024L501.527 163.52C501.271 163.968 500.919 164.192 500.471 164.192C500.167 164.192 499.887 164.088 499.631 163.88C499.391 163.656 499.271 163.384 499.271 163.064C499.271 162.872 499.335 162.648 499.463 162.392L506.687 149.12H498.887C498.503 149.12 498.215 149.032 498.023 148.856C497.831 148.68 497.735 148.432 497.735 148.112C497.735 147.424 498.119 147.08 498.887 147.08H508.559ZM513.733 155.144C513.301 155.144 512.933 155 512.629 154.712C512.341 154.424 512.197 154.056 512.197 153.608C512.197 153.16 512.341 152.792 512.629 152.504C512.933 152.2 513.301 152.048 513.733 152.048C514.165 152.048 514.525 152.2 514.813 152.504C515.101 152.792 515.245 153.16 515.245 153.608C515.245 154.056 515.101 154.424 514.813 154.712C514.525 155 514.165 155.144 513.733 155.144ZM513.733 164.12C513.301 164.12 512.933 163.976 512.629 163.688C512.341 163.4 512.197 163.032 512.197 162.584C512.197 162.136 512.341 161.768 512.629 161.48C512.933 161.176 513.301 161.024 513.733 161.024C514.165 161.024 514.525 161.176 514.813 161.48C515.101 161.768 515.245 162.136 515.245 162.584C515.245 163.032 515.101 163.4 514.813 163.688C514.525 163.976 514.165 164.12 513.733 164.12ZM523.796 164.192C521.828 164.192 520.324 163.456 519.284 161.984C518.26 160.512 517.748 158.368 517.748 155.552C517.748 152.72 518.26 150.568 519.284 149.096C520.324 147.624 521.828 146.888 523.796 146.888C525.764 146.888 527.26 147.624 528.284 149.096C529.324 150.552 529.844 152.696 529.844 155.528C529.844 158.36 529.324 160.512 528.284 161.984C527.26 163.456 525.764 164.192 523.796 164.192ZM523.796 162.2C525.028 162.2 525.932 161.664 526.508 160.592C527.084 159.52 527.372 157.832 527.372 155.528C527.372 153.224 527.084 151.544 526.508 150.488C525.932 149.416 525.028 148.88 523.796 148.88C522.564 148.88 521.66 149.416 521.084 150.488C520.508 151.544 520.22 153.224 520.22 155.528C520.22 157.816 520.508 159.504 521.084 160.592C521.66 161.664 522.564 162.2 523.796 162.2ZM538.187 164.192C536.219 164.192 534.715 163.456 533.675 161.984C532.651 160.512 532.139 158.368 532.139 155.552C532.139 152.72 532.651 150.568 533.675 149.096C534.715 147.624 536.219 146.888 538.187 146.888C540.155 146.888 541.651 147.624 542.675 149.096C543.715 150.552 544.235 152.696 544.235 155.528C544.235 158.36 543.715 160.512 542.675 161.984C541.651 163.456 540.155 164.192 538.187 164.192ZM538.187 162.2C539.419 162.2 540.323 161.664 540.899 160.592C541.475 159.52 541.763 157.832 541.763 155.528C541.763 153.224 541.475 151.544 540.899 150.488C540.323 149.416 539.419 148.88 538.187 148.88C536.955 148.88 536.051 149.416 535.475 150.488C534.899 151.544 534.611 153.224 534.611 155.528C534.611 157.816 534.899 159.504 535.475 160.592C536.051 161.664 536.955 162.2 538.187 162.2Z" fill="#D93464"/>
<path d="M487.912 195.272C488.168 195.272 488.384 195.36 488.56 195.536C488.736 195.696 488.824 195.904 488.824 196.16C488.824 196.416 488.736 196.632 488.56 196.808C488.384 196.968 488.168 197.048 487.912 197.048H483.856V201.104C483.856 201.36 483.768 201.576 483.592 201.752C483.432 201.928 483.224 202.016 482.968 202.016C482.712 202.016 482.496 201.928 482.32 201.752C482.16 201.576 482.08 201.36 482.08 201.104V197.048H478.024C477.768 197.048 477.552 196.96 477.376 196.784C477.2 196.608 477.112 196.4 477.112 196.16C477.112 195.904 477.2 195.696 477.376 195.536C477.552 195.36 477.768 195.272 478.024 195.272H482.08V191.216C482.08 190.96 482.16 190.744 482.32 190.568C482.496 190.392 482.712 190.304 482.968 190.304C483.224 190.304 483.432 190.392 483.592 190.568C483.768 190.744 483.856 190.96 483.856 191.216V195.272H487.912ZM508.559 186.08C508.911 186.08 509.175 186.176 509.351 186.368C509.543 186.56 509.639 186.808 509.639 187.112C509.639 187.4 509.551 187.704 509.375 188.024L501.527 202.52C501.271 202.968 500.919 203.192 500.471 203.192C500.167 203.192 499.887 203.088 499.631 202.88C499.391 202.656 499.271 202.384 499.271 202.064C499.271 201.872 499.335 201.648 499.463 201.392L506.687 188.12H498.887C498.503 188.12 498.215 188.032 498.023 187.856C497.831 187.68 497.735 187.432 497.735 187.112C497.735 186.424 498.119 186.08 498.887 186.08H508.559ZM513.733 194.144C513.301 194.144 512.933 194 512.629 193.712C512.341 193.424 512.197 193.056 512.197 192.608C512.197 192.16 512.341 191.792 512.629 191.504C512.933 191.2 513.301 191.048 513.733 191.048C514.165 191.048 514.525 191.2 514.813 191.504C515.101 191.792 515.245 192.16 515.245 192.608C515.245 193.056 515.101 193.424 514.813 193.712C514.525 194 514.165 194.144 513.733 194.144ZM513.733 203.12C513.301 203.12 512.933 202.976 512.629 202.688C512.341 202.4 512.197 202.032 512.197 201.584C512.197 201.136 512.341 200.768 512.629 200.48C512.933 200.176 513.301 200.024 513.733 200.024C514.165 200.024 514.525 200.176 514.813 200.48C515.101 200.768 515.245 201.136 515.245 201.584C515.245 202.032 515.101 202.4 514.813 202.688C514.525 202.976 514.165 203.12 513.733 203.12ZM526.22 194.312C527.244 194.6 528.02 195.096 528.548 195.8C529.076 196.488 529.34 197.36 529.34 198.416C529.34 199.888 528.82 201.048 527.78 201.896C526.756 202.744 525.364 203.168 523.604 203.168C522.564 203.168 521.564 203 520.604 202.664C519.66 202.328 518.86 201.864 518.204 201.272C517.884 201.016 517.724 200.696 517.724 200.312C517.724 200.024 517.804 199.784 517.964 199.592C518.124 199.384 518.316 199.28 518.54 199.28C518.78 199.28 519.052 199.384 519.356 199.592C520.044 200.104 520.716 200.496 521.372 200.768C522.044 201.024 522.764 201.152 523.532 201.152C525.804 201.152 526.94 200.184 526.94 198.248C526.94 197.304 526.636 196.6 526.028 196.136C525.436 195.656 524.532 195.416 523.316 195.416H521.996C521.692 195.416 521.452 195.32 521.276 195.128C521.1 194.92 521.012 194.68 521.012 194.408C521.012 194.152 521.1 193.928 521.276 193.736C521.452 193.528 521.692 193.424 521.996 193.424H522.932C524.1 193.424 524.988 193.184 525.596 192.704C526.22 192.208 526.532 191.488 526.532 190.544C526.532 189.712 526.276 189.064 525.764 188.6C525.268 188.136 524.564 187.904 523.652 187.904C522.308 187.904 520.964 188.424 519.62 189.464C519.316 189.672 519.044 189.776 518.804 189.776C518.58 189.776 518.388 189.68 518.228 189.488C518.068 189.28 517.988 189.032 517.988 188.744C517.988 188.36 518.148 188.04 518.468 187.784C519.124 187.192 519.916 186.728 520.844 186.392C521.788 186.056 522.756 185.888 523.748 185.888C525.332 185.888 526.596 186.288 527.54 187.088C528.484 187.888 528.948 188.96 528.932 190.304C528.932 191.232 528.692 192.056 528.212 192.776C527.732 193.48 527.068 193.992 526.22 194.312ZM538.187 203.192C536.219 203.192 534.715 202.456 533.675 200.984C532.651 199.512 532.139 197.368 532.139 194.552C532.139 191.72 532.651 189.568 533.675 188.096C534.715 186.624 536.219 185.888 538.187 185.888C540.155 185.888 541.651 186.624 542.675 188.096C543.715 189.552 544.235 191.696 544.235 194.528C544.235 197.36 543.715 199.512 542.675 200.984C541.651 202.456 540.155 203.192 538.187 203.192ZM538.187 201.2C539.419 201.2 540.323 200.664 540.899 199.592C541.475 198.52 541.763 196.832 541.763 194.528C541.763 192.224 541.475 190.544 540.899 189.488C540.323 188.416 539.419 187.88 538.187 187.88C536.955 187.88 536.051 188.416 535.475 189.488C534.899 190.544 534.611 192.224 534.611 194.528C534.611 196.816 534.899 198.504 535.475 199.592C536.051 200.664 536.955 201.2 538.187 201.2Z" fill="url(#paint0_linear)"/>
<path d="M487.912 117.272C488.168 117.272 488.384 117.36 488.56 117.536C488.736 117.696 488.824 117.904 488.824 118.16C488.824 118.416 488.736 118.632 488.56 118.808C488.384 118.968 488.168 119.048 487.912 119.048H483.856V123.104C483.856 123.36 483.768 123.576 483.592 123.752C483.432 123.928 483.224 124.016 482.968 124.016C482.712 124.016 482.496 123.928 482.32 123.752C482.16 123.576 482.08 123.36 482.08 123.104V119.048H478.024C477.768 119.048 477.552 118.96 477.376 118.784C477.2 118.608 477.112 118.4 477.112 118.16C477.112 117.904 477.2 117.696 477.376 117.536C477.552 117.36 477.768 117.272 478.024 117.272H482.08V113.216C482.08 112.96 482.16 112.744 482.32 112.568C482.496 112.392 482.712 112.304 482.968 112.304C483.224 112.304 483.432 112.392 483.592 112.568C483.768 112.744 483.856 112.96 483.856 113.216V117.272H487.912ZM504.551 114.272C505.559 114.272 506.463 114.504 507.263 114.968C508.063 115.416 508.679 116.048 509.111 116.864C509.559 117.68 509.783 118.616 509.783 119.672C509.783 120.728 509.543 121.68 509.063 122.528C508.583 123.36 507.919 124.016 507.071 124.496C506.239 124.96 505.287 125.192 504.215 125.192C502.119 125.192 500.503 124.48 499.367 123.056C498.247 121.616 497.687 119.568 497.687 116.912C497.687 115.04 497.951 113.432 498.479 112.088C499.007 110.728 499.767 109.688 500.759 108.968C501.751 108.248 502.927 107.888 504.287 107.888C505.199 107.888 506.111 108.056 507.023 108.392C507.935 108.728 508.711 109.192 509.351 109.784C509.671 110.056 509.831 110.376 509.831 110.744C509.831 111.032 509.751 111.28 509.591 111.488C509.431 111.68 509.239 111.776 509.015 111.776C508.871 111.776 508.735 111.752 508.607 111.704C508.495 111.656 508.359 111.576 508.199 111.464C506.855 110.424 505.575 109.904 504.359 109.904C503.031 109.904 501.999 110.52 501.263 111.752C500.527 112.968 500.159 114.672 500.159 116.864V116.912C500.511 116.096 501.079 115.456 501.863 114.992C502.663 114.512 503.559 114.272 504.551 114.272ZM504.095 123.176C505.087 123.176 505.879 122.864 506.471 122.24C507.079 121.6 507.383 120.76 507.383 119.72C507.383 118.696 507.079 117.872 506.471 117.248C505.879 116.608 505.087 116.288 504.095 116.288C503.087 116.288 502.263 116.608 501.623 117.248C500.999 117.872 500.687 118.696 500.687 119.72C500.687 120.76 500.999 121.6 501.623 122.24C502.247 122.864 503.071 123.176 504.095 123.176ZM513.71 116.144C513.278 116.144 512.91 116 512.606 115.712C512.318 115.424 512.174 115.056 512.174 114.608C512.174 114.16 512.318 113.792 512.606 113.504C512.91 113.2 513.278 113.048 513.71 113.048C514.142 113.048 514.502 113.2 514.79 113.504C515.078 113.792 515.222 114.16 515.222 114.608C515.222 115.056 515.078 115.424 514.79 115.712C514.502 116 514.142 116.144 513.71 116.144ZM513.71 125.12C513.278 125.12 512.91 124.976 512.606 124.688C512.318 124.4 512.174 124.032 512.174 123.584C512.174 123.136 512.318 122.768 512.606 122.48C512.91 122.176 513.278 122.024 513.71 122.024C514.142 122.024 514.502 122.176 514.79 122.48C515.078 122.768 515.222 123.136 515.222 123.584C515.222 124.032 515.078 124.4 514.79 124.688C514.502 124.976 514.142 125.12 513.71 125.12ZM526.197 116.312C527.221 116.6 527.997 117.096 528.525 117.8C529.053 118.488 529.317 119.36 529.317 120.416C529.317 121.888 528.797 123.048 527.757 123.896C526.733 124.744 525.341 125.168 523.581 125.168C522.541 125.168 521.541 125 520.581 124.664C519.637 124.328 518.837 123.864 518.181 123.272C517.861 123.016 517.701 122.696 517.701 122.312C517.701 122.024 517.781 121.784 517.941 121.592C518.101 121.384 518.293 121.28 518.517 121.28C518.757 121.28 519.029 121.384 519.333 121.592C520.021 122.104 520.693 122.496 521.349 122.768C522.021 123.024 522.741 123.152 523.509 123.152C525.781 123.152 526.917 122.184 526.917 120.248C526.917 119.304 526.613 118.6 526.005 118.136C525.413 117.656 524.509 117.416 523.293 117.416H521.973C521.669 117.416 521.429 117.32 521.253 117.128C521.077 116.92 520.989 116.68 520.989 116.408C520.989 116.152 521.077 115.928 521.253 115.736C521.429 115.528 521.669 115.424 521.973 115.424H522.909C524.077 115.424 524.965 115.184 525.573 114.704C526.197 114.208 526.509 113.488 526.509 112.544C526.509 111.712 526.253 111.064 525.741 110.6C525.245 110.136 524.541 109.904 523.629 109.904C522.285 109.904 520.941 110.424 519.597 111.464C519.293 111.672 519.021 111.776 518.781 111.776C518.557 111.776 518.365 111.68 518.205 111.488C518.045 111.28 517.965 111.032 517.965 110.744C517.965 110.36 518.125 110.04 518.445 109.784C519.101 109.192 519.893 108.728 520.821 108.392C521.765 108.056 522.733 107.888 523.725 107.888C525.309 107.888 526.573 108.288 527.517 109.088C528.461 109.888 528.925 110.96 528.909 112.304C528.909 113.232 528.669 114.056 528.189 114.776C527.709 115.48 527.045 115.992 526.197 116.312ZM538.163 125.192C536.195 125.192 534.691 124.456 533.651 122.984C532.627 121.512 532.115 119.368 532.115 116.552C532.115 113.72 532.627 111.568 533.651 110.096C534.691 108.624 536.195 107.888 538.163 107.888C540.131 107.888 541.627 108.624 542.651 110.096C543.691 111.552 544.211 113.696 544.211 116.528C544.211 119.36 543.691 121.512 542.651 122.984C541.627 124.456 540.131 125.192 538.163 125.192ZM538.163 123.2C539.395 123.2 540.299 122.664 540.875 121.592C541.451 120.52 541.739 118.832 541.739 116.528C541.739 114.224 541.451 112.544 540.875 111.488C540.299 110.416 539.395 109.88 538.163 109.88C536.931 109.88 536.027 110.416 535.451 111.488C534.875 112.544 534.587 114.224 534.587 116.528C534.587 118.816 534.875 120.504 535.451 121.592C536.027 122.664 536.931 123.2 538.163 123.2Z" fill="url(#paint1_linear)"/>
<g clip-path="url(#clip0)">
<path d="M466.773 77.1667C471.833 77.1667 475.935 73.0626 475.935 68C475.935 62.9374 471.833 58.8334 466.773 58.8334C461.713 58.8334 457.611 62.9374 457.611 68C457.611 73.0626 461.713 77.1667 466.773 77.1667Z" stroke="#D93464" stroke-width="1.5" stroke-linecap="round" stroke-linejoin="round"/>
<path d="M466.772 77.1667C468.582 77.1667 470.05 73.0626 470.05 68C470.05 62.9374 468.582 58.8334 466.772 58.8334C464.962 58.8334 463.495 62.9374 463.495 68C463.495 73.0626 464.962 77.1667 466.772 77.1667Z" stroke="#D93464" stroke-width="1.5" stroke-linecap="round" stroke-linejoin="round"/>
<path d="M457.611 68H475.935" stroke="#D93464" stroke-width="1.5" stroke-linecap="round" stroke-linejoin="round"/>
<path d="M459.181 63.6111H474.364" stroke="#D93464" stroke-width="1.5" stroke-linecap="round" stroke-linejoin="round"/>
<path d="M459.181 72.4364H474.364" stroke="#D93464" stroke-width="1.5" stroke-linecap="round" stroke-linejoin="round"/>
</g>
<g filter="url(#filter5_d)">
<rect x="24" y="244" width="163.916" height="134.259" rx="14" fill="white"/>
</g>
<rect opacity="0.06" x="24" y="270.342" width="163.916" height="78.1762" fill="#D93464"/>
<path d="M24 258C24 250.268 30.268 244 38 244H173.916C181.648 244 187.916 250.268 187.916 258V272.891H24V258Z" fill="#D93464"/>
<g clip-path="url(#clip1)">
<path d="M99.3016 254.201H99.2971C96.926 254.201 95.0073 256.103 95.0073 258.443C95.0073 260.788 96.926 262.69 99.2971 262.69C101.668 262.69 103.591 260.793 103.591 258.448C103.591 256.103 101.673 254.201 99.3016 254.201ZM101.116 260.247C100.107 261.24 98.4781 261.236 97.4735 260.242C96.4734 259.249 96.4734 257.638 97.4735 256.645C98.4781 255.647 100.107 255.647 101.116 256.64L101.121 256.645C102.13 257.638 102.125 259.253 101.116 260.247Z" fill="white"/>
<path d="M94.1474 261.016L93.7176 260.994H89.8532L95.0072 255.897L94.9846 255.472C94.9665 254.788 94.4099 254.237 93.7176 254.219L93.2877 254.197H86.8485L86.8711 254.622C86.9028 255.298 87.4503 255.844 88.1382 255.875L88.568 255.897H92.4324L87.2784 260.994L87.301 261.419C87.3236 262.099 87.8802 262.65 88.568 262.672L88.9979 262.694H95.4371L95.4145 262.269C95.3556 261.567 94.8534 261.057 94.1474 261.016Z" fill="white"/>
<path d="M121.628 254.201C120.642 254.201 119.705 254.622 119.053 255.351C117.913 254.072 115.985 253.826 114.555 254.783C114.225 254.412 113.474 254.201 113.044 254.201V262.694L113.474 262.672C114.189 262.627 114.714 262.126 114.741 261.419L114.764 260.994V258.023L114.786 257.598C114.786 257.302 114.863 257.011 114.999 256.747C115.469 255.938 116.519 255.66 117.343 256.13C117.601 256.278 117.818 256.492 117.967 256.747H117.963C118.103 257.011 118.175 257.302 118.175 257.598L118.198 258.023V260.994L118.221 261.419C118.248 262.099 118.795 262.645 119.483 262.672L119.913 262.694V258.023L119.936 257.598C119.936 257.298 120.008 257.007 120.148 256.743C120.624 255.933 121.678 255.656 122.497 256.13C122.755 256.278 122.972 256.492 123.121 256.747C123.257 257.011 123.33 257.302 123.33 257.598L123.352 258.023V260.994L123.375 261.419C123.397 262.099 123.949 262.645 124.637 262.672L125.067 262.694V257.598C125.063 255.723 123.524 254.201 121.628 254.201Z" fill="white"/>
<path d="M111.352 255.445C110.546 254.649 109.456 254.201 108.315 254.201C107.175 254.201 106.085 254.649 105.279 255.445C103.605 257.105 103.605 259.795 105.284 261.45C106.962 263.106 109.682 263.106 111.356 261.446C113.035 259.79 113.031 257.101 111.352 255.445ZM110.134 260.247C109.125 261.24 107.496 261.236 106.492 260.242C105.492 259.249 105.492 257.638 106.492 256.645C107.496 255.647 109.125 255.647 110.134 256.64L110.139 256.645C111.148 257.638 111.144 259.253 110.134 260.247Z" fill="white"/>
</g>
<path d="M125.917 359.565V366.363H117.423V359.565H125.917ZM126.766 357.865H116.574C116.107 357.865 115.725 358.248 115.725 358.715V367.212C115.725 367.68 116.107 368.062 116.574 368.062H126.766C127.233 368.062 127.615 367.68 127.615 367.212V364.238L131.012 367.637V358.29L127.615 361.689V358.715C127.615 358.248 127.233 357.865 126.766 357.865Z" fill="#D93464"/>
<path d="M86.8485 364.522C88.1409 364.522 89.1841 363.478 89.1841 362.185V357.511C89.1841 356.218 88.1409 355.174 86.8485 355.174C85.5561 355.174 84.5129 356.218 84.5129 357.511V362.185C84.5129 363.478 85.5561 364.522 86.8485 364.522ZM86.07 357.511C86.07 357.083 86.4203 356.732 86.8485 356.732C87.2767 356.732 87.627 357.083 87.627 357.511V362.185C87.627 362.613 87.2767 362.964 86.8485 362.964C86.4203 362.964 86.07 362.613 86.07 362.185V357.511ZM90.7412 362.185C90.7412 364.335 88.9972 366.079 86.8485 366.079C84.6998 366.079 82.9559 364.335 82.9559 362.185H81.3988C81.3988 364.934 83.4308 367.193 86.07 367.575V369.974H87.627V367.575C90.2663 367.193 92.2982 364.934 92.2982 362.185H90.7412Z" fill="#D93464"/>
<path opacity="0.4" d="M116.503 311.486C117.21 311.894 117.21 312.914 116.503 313.322L100.207 322.735C99.5007 323.143 98.6172 322.633 98.6172 321.817L98.6172 302.991C98.6172 302.175 99.5007 301.665 100.207 302.073L116.503 311.486Z" stroke="#D93464" stroke-width="1.88"/>
<defs>
<filter id="filter0_d" x="52.9779" y="0.5" width="440.288" height="374.5" filterUnits="userSpaceOnUse" color-interpolation-filters="sRGB">
<feFlood flood-opacity="0" result="BackgroundImageFix"/>
<feColorMatrix in="SourceAlpha" type="matrix" values="0 0 0 0 0 0 0 0 0 0 0 0 0 0 0 0 0 0 127 0"/>
<feOffset dy="6"/>
<feGaussianBlur stdDeviation="7"/>
<feColorMatrix type="matrix" values="0 0 0 0 0.183073 0 0 0 0 0.395437 0 0 0 0 0.4625 0 0 0 0.16 0"/>
<feBlend mode="normal" in2="BackgroundImageFix" result="effect1_dropShadow"/>
<feBlend mode="normal" in="SourceGraphic" in2="effect1_dropShadow" result="shape"/>
</filter>
<filter id="filter1_d" x="369.817" y="26" width="55.9815" height="33" filterUnits="userSpaceOnUse" color-interpolation-filters="sRGB">
<feFlood flood-opacity="0" result="BackgroundImageFix"/>
<feColorMatrix in="SourceAlpha" type="matrix" values="0 0 0 0 0 0 0 0 0 0 0 0 0 0 0 0 0 0 127 0"/>
<feOffset dy="10"/>
<feGaussianBlur stdDeviation="5"/>
<feColorMatrix type="matrix" values="0 0 0 0 0 0 0 0 0 0 0 0 0 0 0 0 0 0 0.1 0"/>
<feBlend mode="normal" in2="BackgroundImageFix" result="effect1_dropShadow"/>
<feBlend mode="normal" in="SourceGraphic" in2="effect1_dropShadow" result="shape"/>
</filter>
<filter id="filter2_d" x="327.839" y="26" width="55.9815" height="33" filterUnits="userSpaceOnUse" color-interpolation-filters="sRGB">
<feFlood flood-opacity="0" result="BackgroundImageFix"/>
<feColorMatrix in="SourceAlpha" type="matrix" values="0 0 0 0 0 0 0 0 0 0 0 0 0 0 0 0 0 0 127 0"/>
<feOffset dy="10"/>
<feGaussianBlur stdDeviation="5"/>
<feColorMatrix type="matrix" values="0 0 0 0 0 0 0 0 0 0 0 0 0 0 0 0 0 0 0.1 0"/>
<feBlend mode="normal" in2="BackgroundImageFix" result="effect1_dropShadow"/>
<feBlend mode="normal" in="SourceGraphic" in2="effect1_dropShadow" result="shape"/>
</filter>
<filter id="filter3_d" x="285.86" y="26" width="55.9815" height="33" filterUnits="userSpaceOnUse" color-interpolation-filters="sRGB">
<feFlood flood-opacity="0" result="BackgroundImageFix"/>
<feColorMatrix in="SourceAlpha" type="matrix" values="0 0 0 0 0 0 0 0 0 0 0 0 0 0 0 0 0 0 127 0"/>
<feOffset dy="10"/>
<feGaussianBlur stdDeviation="5"/>
<feColorMatrix type="matrix" values="0 0 0 0 0 0 0 0 0 0 0 0 0 0 0 0 0 0 0.1 0"/>
<feBlend mode="normal" in2="BackgroundImageFix" result="effect1_dropShadow"/>
<feBlend mode="normal" in="SourceGraphic" in2="effect1_dropShadow" result="shape"/>
</filter>
<filter id="filter4_d" x="413.787" y="33" width="194.924" height="229" filterUnits="userSpaceOnUse" color-interpolation-filters="sRGB">
<feFlood flood-opacity="0" result="BackgroundImageFix"/>
<feColorMatrix in="SourceAlpha" type="matrix" values="0 0 0 0 0 0 0 0 0 0 0 0 0 0 0 0 0 0 127 0"/>
<feOffset dy="13"/>
<feGaussianBlur stdDeviation="12"/>
<feColorMatrix type="matrix" values="0 0 0 0 0.184314 0 0 0 0 0.396078 0 0 0 0 0.462745 0 0 0 0.2 0"/>
<feBlend mode="normal" in2="BackgroundImageFix" result="effect1_dropShadow"/>
<feBlend mode="normal" in="SourceGraphic" in2="effect1_dropShadow" result="shape"/>
</filter>
<filter id="filter5_d" x="0" y="233" width="211.916" height="182.259" filterUnits="userSpaceOnUse" color-interpolation-filters="sRGB">
<feFlood flood-opacity="0" result="BackgroundImageFix"/>
<feColorMatrix in="SourceAlpha" type="matrix" values="0 0 0 0 0 0 0 0 0 0 0 0 0 0 0 0 0 0 127 0"/>
<feOffset dy="13"/>
<feGaussianBlur stdDeviation="12"/>
<feColorMatrix type="matrix" values="0 0 0 0 0.184314 0 0 0 0 0.396078 0 0 0 0 0.462745 0 0 0 0.2 0"/>
<feBlend mode="normal" in2="BackgroundImageFix" result="effect1_dropShadow"/>
<feBlend mode="normal" in="SourceGraphic" in2="effect1_dropShadow" result="shape"/>
</filter>
<linearGradient id="paint0_linear" x1="510.75" y1="186" x2="510.75" y2="204.5" gradientUnits="userSpaceOnUse">
<stop stop-color="#D93464" stop-opacity="0.5"/>
<stop offset="1" stop-color="#D93464" stop-opacity="0.12"/>
</linearGradient>
<linearGradient id="paint1_linear" x1="510.75" y1="109" x2="510.75" y2="126.5" gradientUnits="userSpaceOnUse">
<stop stop-color="#D93464" stop-opacity="0.12"/>
<stop offset="1" stop-color="#D93464" stop-opacity="0.5"/>
</linearGradient>
<clipPath id="clip0">
<rect width="19.9897" height="20" fill="white" transform="translate(456.778 58)"/>
</clipPath>
<clipPath id="clip1">
<rect width="38.2187" height="8.49741" fill="white" transform="translate(86.8485 254.197)"/>
</clipPath>
</defs>
</svg>
