<svg width="533" height="358" viewBox="0 0 533 358" fill="none" xmlns="http://www.w3.org/2000/svg">
<path d="M31.5386 255C18.0954 294.626 60.5739 323.5 77.094 329.5L445.542 329.5C479.083 314 494.101 192 418.008 174C341.916 156 323.959 105.929 251.806 73.4999C181.721 41.9999 121.147 83.9998 102.124 145C87.9059 190.594 52.0634 194.5 31.5386 255Z" fill="#F4F6F9"/>
<path d="M330.523 327.964C330.523 327.964 379.708 276.739 370.361 261.687C363.118 249.902 342.673 266.704 340.103 257.836C337.533 248.968 364.403 214.546 345.36 202.061C326.317 189.575 315.453 219.447 314.401 227.265C312.621 240.5 316.037 259.236 307.859 260.753C299.681 262.154 285.895 230.648 271.292 237.416C256.571 244.184 270.24 292.258 302.601 327.964H330.523Z" fill="#EAEFF4"/>
<path d="M318.49 327.964C329.822 294.242 354.823 271.721 354.823 271.721" stroke="#D1DAE5" stroke-width="1.8833" stroke-miterlimit="10" stroke-linecap="round" stroke-linejoin="round"/>
<path d="M334.612 223.647C309.027 300.427 312.648 327.964 312.648 327.964" stroke="#D1DAE5" stroke-width="1.8833" stroke-miterlimit="10" stroke-linecap="round" stroke-linejoin="round"/>
<path d="M307.391 327.964C307.391 327.964 303.77 283.157 279.703 254.686" stroke="#D1DAE5" stroke-width="1.8833" stroke-miterlimit="10" stroke-linecap="round" stroke-linejoin="round"/>
<rect x="-0.94" y="0.94" width="133.28" height="109.84" rx="9.06" transform="matrix(-1 0 0 1 133.416 173.637)" fill="white" stroke="#D1DAE5" stroke-width="1.88"/>
<path d="M135.16 183.778C135.16 178.255 130.683 173.778 125.16 173.778H10.0003C4.47749 173.778 0.000335693 178.255 0.000335693 183.778V194.725H135.16V183.778Z" fill="#F4F7F9"/>
<rect opacity="0.8" width="27.9641" height="27.93" rx="6" transform="matrix(-1 0 0 1 117.818 243.463)" fill="#EAEFF4"/>
<rect opacity="0.8" width="27.9641" height="27.93" rx="6" transform="matrix(-1 0 0 1 81.698 205.059)" fill="#EAEFF4"/>
<rect opacity="0.8" width="27.9641" height="27.93" rx="6" transform="matrix(-1 0 0 1 45.5779 205.059)" fill="#EAEFF4"/>
<g filter="url(#filter0_d)">
<rect width="27.9634" height="27.9307" rx="6" transform="matrix(-0.989842 0.142173 0.142512 0.989793 122.885 199.737)" fill="#D93464"/>
</g>
<rect opacity="0.8" width="27.9641" height="27.93" rx="6" transform="matrix(-1 0 0 1 81.698 243.463)" fill="#EAEFF4"/>
<rect opacity="0.8" width="27.9641" height="27.93" rx="6" transform="matrix(-1 0 0 1 45.5779 243.463)" fill="#EAEFF4"/>
<path d="M104.888 218.039L108.611 221.108L117.424 210.083" stroke="white" stroke-width="1.88" stroke-linecap="round" stroke-linejoin="round"/>
<path d="M37.4216 173.638C37.4216 167.21 34.0308 162 29.848 162C25.6652 162 22.2744 167.21 22.2744 173.638C22.2744 180.065 25.6652 185.275 29.848 185.275" stroke="#B8C0CC" stroke-width="1.88"/>
<path d="M74.707 173.638C74.707 167.21 71.3162 162 67.1334 162C62.9506 162 59.5598 167.21 59.5598 173.638C59.5598 180.065 62.9506 185.275 67.1334 185.275" stroke="#B8C0CC" stroke-width="1.88"/>
<path d="M113.157 173.638C113.157 167.21 109.767 162 105.584 162C101.401 162 98.0103 167.21 98.0103 173.638C98.0103 180.065 101.401 185.275 105.584 185.275" stroke="#B8C0CC" stroke-width="1.88"/>
<ellipse cx="67.9889" cy="185.318" rx="2.88739" ry="2.88387" fill="#B8C0CC"/>
<ellipse cx="106.417" cy="185.318" rx="2.88739" ry="2.88387" fill="#B8C0CC"/>
<ellipse cx="30.7038" cy="185.318" rx="2.88739" ry="2.88387" fill="#B8C0CC"/>
<rect x="-0.94" y="0.94" width="133.28" height="109.84" rx="9.06" transform="matrix(-1 0 0 1 133.416 173.778)" stroke="#B8C0CC" stroke-width="1.88"/>
<path d="M132.105 237.903C130.922 233.538 126.421 230.957 122.051 232.138C117.681 233.319 115.097 237.815 116.28 242.18C117.462 246.544 121.963 249.125 126.333 247.944C130.703 246.763 133.287 242.267 132.105 237.903Z" fill="#D93464"/>
<path d="M165.738 279.028C165.738 279.028 132.091 278.853 124.211 240.102" stroke="#D93464" stroke-width="1.8833" stroke-miterlimit="10" stroke-linecap="round" stroke-linejoin="round"/>
<path d="M233.499 197.307C223.455 197.307 213.51 199.26 204.231 203.055C194.952 206.85 186.521 212.413 179.419 219.425C172.317 226.438 166.683 234.763 162.84 243.925C158.996 253.088 157.018 262.908 157.018 272.825C157.018 282.81 159.009 292.697 162.879 301.922C166.748 311.147 172.42 319.529 179.57 326.589C186.72 333.65 195.209 339.25 204.551 343.072C213.893 346.893 223.906 348.859 234.018 348.859H298.101C299.729 348.859 301.341 348.543 302.845 347.927C304.349 347.312 305.716 346.41 306.867 345.274C308.019 344.137 308.932 342.787 309.555 341.302C310.178 339.817 310.499 338.225 310.499 336.617V273.34C310.499 253.175 302.386 233.835 287.946 219.577C273.506 205.318 253.92 197.307 233.499 197.307V197.307Z" fill="white"/>
<path opacity="0.1" d="M233.535 197.307C229.521 197.308 225.514 197.617 221.55 198.234C253.078 197.506 295.926 220.398 295.926 272.947V338.151C295.918 340.989 294.767 343.708 292.726 345.714C290.684 347.72 287.917 348.851 285.03 348.859H299.604C302.491 348.851 305.258 347.72 307.299 345.713C309.34 343.707 310.49 340.988 310.499 338.151V272.947C310.439 252.904 302.312 233.699 287.891 219.526C273.471 205.354 253.929 197.366 233.535 197.307Z" fill="#D93464"/>
<path d="M219.805 258.276C219.805 256.428 219.07 254.656 217.762 253.349C216.454 252.042 214.679 251.308 212.829 251.308C210.979 251.308 209.204 252.042 207.896 253.349C206.588 254.656 205.853 256.428 205.853 258.276" stroke="#D93464" stroke-width="1.883" stroke-linecap="round" stroke-linejoin="round"/>
<path d="M186.668 258.276C186.668 256.428 185.933 254.656 184.624 253.349C183.316 252.042 181.542 251.308 179.691 251.308C177.841 251.308 176.067 252.042 174.758 253.349C173.45 254.656 172.715 256.428 172.715 258.276" stroke="#D93464" stroke-width="1.883" stroke-linecap="round" stroke-linejoin="round"/>
<path d="M233.499 197.307C223.455 197.307 213.51 199.26 204.231 203.055C194.952 206.85 186.521 212.413 179.419 219.425C172.317 226.438 166.683 234.763 162.84 243.925C158.996 253.088 157.018 262.908 157.018 272.825V272.825C157.018 282.81 159.009 292.697 162.879 301.922C166.748 311.147 172.42 319.529 179.57 326.589C186.72 333.65 195.209 339.25 204.551 343.072C213.893 346.893 223.906 348.859 234.018 348.859H298.101C299.729 348.859 301.341 348.543 302.845 347.927C304.349 347.312 305.716 346.41 306.867 345.274C308.019 344.137 308.932 342.787 309.555 341.302C310.178 339.817 310.499 338.225 310.499 336.617V273.34C310.499 253.175 302.386 233.835 287.946 219.577C273.506 205.318 253.92 197.307 233.499 197.307V197.307Z" stroke="#D93464" stroke-width="1.883" stroke-linecap="round" stroke-linejoin="round"/>
<path d="M220.678 279.18C207.674 279.18 197.132 268.651 197.132 255.663C197.132 242.675 207.674 232.146 220.678 232.146C233.681 232.146 244.223 242.675 244.223 255.663C244.223 268.651 233.681 279.18 220.678 279.18Z" stroke="#D93464" stroke-width="1.8833" stroke-miterlimit="10" stroke-linecap="round" stroke-linejoin="round"/>
<path d="M174.459 279.18C161.937 279.18 151.785 268.651 151.785 255.663C151.785 242.675 161.937 232.146 174.459 232.146C186.981 232.146 197.132 242.675 197.132 255.663C197.132 268.651 186.981 279.18 174.459 279.18Z" stroke="#D93464" stroke-width="1.8833" stroke-miterlimit="10" stroke-linecap="round" stroke-linejoin="round"/>
<rect width="134.296" height="29.6136" transform="matrix(-1 0 0 1 313.987 327.955)" fill="white"/>
<path d="M25.3389 327.955H532" stroke="#B8C0CC" stroke-width="1.88" stroke-linecap="round" stroke-linejoin="round"/>
<path d="M489.452 214H399.446C396.164 214 393.479 216.682 393.479 219.96V278.666C393.479 281.944 396.164 284.626 399.446 284.626H489.452C492.734 284.626 495.419 281.944 495.419 278.666V219.96C495.419 216.682 492.734 214 489.452 214Z" fill="white" stroke="#B8C0CC" stroke-width="1.8833" stroke-miterlimit="10" stroke-linecap="round" stroke-linejoin="round"/>
<path d="M474.534 274.097C478.818 274.097 482.291 270.628 482.291 266.349C482.291 262.069 478.818 258.601 474.534 258.601C470.249 258.601 466.776 262.069 466.776 266.349C466.776 270.628 470.249 274.097 474.534 274.097Z" fill="#FFC861"/>
<path d="M465.484 274.097C469.768 274.097 473.241 270.628 473.241 266.349C473.241 262.069 469.768 258.601 465.484 258.601C461.199 258.601 457.726 262.069 457.726 266.349C457.726 270.628 461.199 274.097 465.484 274.097Z" fill="#EF6356"/>
<path d="M404.916 269.627H432.564" stroke="#B8C0CC" stroke-width="1.8833" stroke-miterlimit="10" stroke-linecap="round" stroke-linejoin="round"/>
<path d="M404.916 263.964H416.851" stroke="#B8C0CC" stroke-width="1.8833" stroke-miterlimit="10" stroke-linecap="round" stroke-linejoin="round"/>
<path d="M414.861 239.032H406.208C404.418 239.032 402.926 237.542 402.926 235.754V227.112C402.926 225.324 404.418 223.834 406.208 223.834H414.861C416.651 223.834 418.143 225.324 418.143 227.112V235.754C418.143 237.542 416.651 239.032 414.861 239.032Z" fill="#EAEFF4"/>
<path d="M405.513 250.754C404.618 250.754 403.921 250.059 403.921 249.165V247.079C403.921 246.185 404.618 245.49 405.513 245.49C406.408 245.49 407.104 246.185 407.104 247.079V249.165C407.104 250.059 406.408 250.754 405.513 250.754Z" fill="#B8C0CC"/>
<path d="M411.381 250.754C410.485 250.754 409.789 250.059 409.789 249.165V247.079C409.789 246.185 410.485 245.49 411.381 245.49C412.276 245.49 412.972 246.185 412.972 247.079V249.165C412.872 250.059 412.176 250.754 411.381 250.754Z" fill="#B8C0CC"/>
<path d="M417.248 250.754C416.353 250.754 415.657 250.059 415.657 249.165V247.079C415.657 246.185 416.353 245.49 417.248 245.49C418.143 245.49 418.839 246.185 418.839 247.079V249.165C418.839 250.059 418.143 250.754 417.248 250.754Z" fill="#B8C0CC"/>
<path d="M423.216 250.754C422.321 250.754 421.625 250.059 421.625 249.165V247.079C421.625 246.185 422.321 245.49 423.216 245.49C424.111 245.49 424.808 246.185 424.808 247.079V249.165C424.808 250.059 424.111 250.754 423.216 250.754Z" fill="#B8C0CC"/>
<path d="M433.956 250.754C433.061 250.754 432.365 250.059 432.365 249.165V247.079C432.365 246.185 433.061 245.49 433.956 245.49C434.851 245.49 435.547 246.185 435.547 247.079V249.165C435.448 250.059 434.752 250.754 433.956 250.754Z" fill="#B8C0CC"/>
<path d="M439.724 250.754C438.829 250.754 438.133 250.059 438.133 249.165V247.079C438.133 246.185 438.829 245.49 439.724 245.49C440.619 245.49 441.315 246.185 441.315 247.079V249.165C441.315 250.059 440.619 250.754 439.724 250.754Z" fill="#B8C0CC"/>
<path d="M445.691 250.754C444.796 250.754 444.1 250.059 444.1 249.165V247.079C444.1 246.185 444.796 245.49 445.691 245.49C446.586 245.49 447.282 246.185 447.282 247.079V249.165C447.282 250.059 446.586 250.754 445.691 250.754Z" fill="#B8C0CC"/>
<path d="M451.659 250.754C450.764 250.754 450.067 250.059 450.067 249.165V247.079C450.067 246.185 450.764 245.49 451.659 245.49C452.554 245.49 453.25 246.185 453.25 247.079V249.165C453.25 250.059 452.554 250.754 451.659 250.754Z" fill="#B8C0CC"/>
<path d="M461.903 250.754C461.007 250.754 460.311 250.059 460.311 249.165V247.079C460.311 246.185 461.007 245.49 461.903 245.49C462.798 245.49 463.494 246.185 463.494 247.079V249.165C463.494 250.059 462.798 250.754 461.903 250.754Z" fill="#B8C0CC"/>
<path d="M467.77 250.754C466.875 250.754 466.179 250.059 466.179 249.165V247.079C466.179 246.185 466.875 245.49 467.77 245.49C468.666 245.49 469.362 246.185 469.362 247.079V249.165C469.262 250.059 468.566 250.754 467.77 250.754Z" fill="#B8C0CC"/>
<path d="M473.638 250.754C472.743 250.754 472.047 250.059 472.047 249.165V247.079C472.047 246.185 472.743 245.49 473.638 245.49C474.533 245.49 475.23 246.185 475.23 247.079V249.165C475.23 250.059 474.533 250.754 473.638 250.754Z" fill="#B8C0CC"/>
<path d="M479.605 250.754C478.71 250.754 478.014 250.059 478.014 249.165V247.079C478.014 246.185 478.71 245.49 479.605 245.49C480.501 245.49 481.197 246.185 481.197 247.079V249.165C481.197 250.059 480.501 250.754 479.605 250.754Z" fill="#B8C0CC"/>
<path d="M332.982 113.223L301.485 113.038L291.092 127.814C290.873 128.128 290.594 128.395 290.27 128.602C289.947 128.808 289.587 128.948 289.209 129.015C288.832 129.082 288.445 129.074 288.07 128.992C287.696 128.91 287.341 128.754 287.027 128.535C286.773 128.359 286.548 128.142 286.363 127.894L275.093 112.896L241.993 112.626C239.238 112.607 236.604 111.498 234.668 109.542C232.731 107.586 231.65 104.943 231.662 102.192L232.09 33.3427C232.109 30.5919 233.219 27.9609 235.178 26.0267C237.136 24.0925 239.783 23.013 242.537 23.025L333.658 23.5899C336.409 23.6387 339.028 24.7742 340.943 26.7478C342.858 28.7215 343.912 31.3724 343.874 34.1204L343.446 102.97C343.41 105.712 342.29 108.328 340.331 110.249C338.371 112.17 335.73 113.239 332.985 113.223L332.982 113.223Z" fill="white"/>
<path d="M333.147 113.429L304.211 113.472C303.47 113.473 302.739 113.648 302.077 113.983C301.415 114.317 300.842 114.802 300.402 115.399L291.331 127.684C291.103 127.993 290.808 128.245 290.467 128.422C290.126 128.599 289.75 128.695 289.366 128.703C288.982 128.712 288.602 128.632 288.254 128.47C287.906 128.308 287.599 128.068 287.359 127.77L277.315 115.308C276.864 114.748 276.292 114.296 275.643 113.986C274.994 113.676 274.284 113.516 273.564 113.516L243.384 113.561C240.462 113.565 237.658 112.409 235.589 110.349C233.52 108.288 232.355 105.491 232.35 102.572L232.265 35.0547C232.262 32.1365 233.419 29.3364 235.482 27.27C237.545 25.2035 240.345 24.0399 243.267 24.0349L333.018 23.9059C334.464 23.9034 335.897 24.1856 337.235 24.7363C338.573 25.2871 339.788 26.0957 340.813 27.1159C341.837 28.1361 342.651 29.3479 343.206 30.6821C343.762 32.0163 344.049 33.4468 344.05 34.8918L344.147 102.407C344.15 103.852 343.868 105.284 343.316 106.62C342.765 107.956 341.955 109.171 340.933 110.194C339.912 111.218 338.698 112.03 337.362 112.585C336.026 113.14 334.594 113.427 333.147 113.429Z" stroke="#B8C0CC" stroke-width="1.883" stroke-linecap="round" stroke-linejoin="round"/>
<path d="M286.254 88.8787C286.898 92.8569 284.191 96.6055 280.205 97.2494C276.219 97.8932 272.467 95.1879 271.823 91.2097C271.179 87.2314 273.886 83.4828 277.872 82.8389C281.858 82.1951 285.609 84.9004 286.254 88.8787Z" stroke="#B8C0CC" stroke-width="2"/>
<path d="M279.193 53.6995C281.727 53.0776 283.277 50.5219 282.654 47.9912C282.031 45.4605 279.472 43.9132 276.939 44.5351C274.405 45.157 272.856 47.7127 273.478 50.2433C274.101 52.774 276.66 54.3214 279.193 53.6995Z" fill="#B8C0CC"/>
<path d="M296.187 67.9395L296.296 80.8095L301.748 90.071C301.851 90.279 301.9 90.5097 301.889 90.7415C301.878 90.9733 301.808 91.1985 301.685 91.3958C301.563 91.5931 301.393 91.756 301.19 91.8692C300.987 91.9824 300.759 92.0422 300.526 92.0429L258.137 92.1745C257.899 92.173 257.666 92.1102 257.46 91.9923C257.253 91.8743 257.081 91.7052 256.959 91.5013C256.838 91.2973 256.771 91.0654 256.765 90.8281C256.759 90.5907 256.815 90.3558 256.927 90.1463L261.844 81.2881C261.964 81.0723 262.023 80.8277 262.014 80.581L261.599 68.1563C261.411 63.7674 262.97 59.4823 265.934 56.237C268.899 52.9916 273.029 51.0498 277.421 50.8354C282.177 50.6321 286.82 52.3167 290.336 55.5214C293.852 58.7261 295.955 63.1904 296.187 67.9395Z" fill="white" stroke="#B8C0CC" stroke-width="1.883" stroke-miterlimit="10"/>
<path d="M262.258 80.9285L296.3 80.9284" stroke="#B8C0CC" stroke-width="1.883" stroke-miterlimit="10" stroke-linecap="round"/>
<ellipse rx="18.3908" ry="18.3701" transform="matrix(1.00002 -0.00709088 0.0071075 0.999928 306.863 57.7653)" fill="white"/>
<path d="M323.4 65.8123C320.434 71.882 314.214 76.0829 306.993 76.1341C296.836 76.2061 288.543 68.0405 288.471 57.8957C288.399 47.7509 296.575 39.4685 306.732 39.3964C316.889 39.3244 325.182 47.532 324.334 57.6414L324.347 59.4783" stroke="#B8C0CC" stroke-width="1.88" stroke-linecap="round" stroke-linejoin="round"/>
<path d="M306.784 46.7432L306.865 58.2237L312.432 65.0729" stroke="#B8C0CC" stroke-width="1.88" stroke-linecap="round" stroke-linejoin="round"/>
<path d="M330.745 53.9216L324.347 59.4779L317.871 54.0129" stroke="#B8C0CC" stroke-width="1.88" stroke-linecap="round" stroke-linejoin="round"/>
<path d="M138.789 61.1664C139.56 60.329 140.647 59.8537 141.785 59.8562L191.17 59.9654C193.411 59.9704 195.224 61.79 195.221 64.0309L195.112 144.854C195.109 147.097 193.287 148.913 191.043 148.908L132.217 148.784C129.976 148.779 128.163 146.96 128.166 144.719L128.257 74.1859C128.258 73.1689 128.641 72.1894 129.33 71.4412L138.789 61.1664Z" fill="white" stroke="#B8C0CC" stroke-width="1.88" stroke-linecap="round" stroke-linejoin="round"/>
<path d="M141.578 98.2747L181.497 98.359" stroke="#E5E5E5" stroke-width="4" stroke-linecap="round"/>
<path d="M141.578 112.119L181.497 112.203" stroke="#E5E5E5" stroke-width="4" stroke-linecap="round"/>
<path d="M141.578 126.945L181.497 127.03" stroke="#E5E5E5" stroke-width="4" stroke-linecap="round"/>
<path d="M153.009 82.3127L181.191 82.3127" stroke="#E5E5E5" stroke-width="4" stroke-linecap="round"/>
<path d="M194.737 53.4482L173.954 73.8768L172.051 82.3974L180.689 80.5529L200.83 60.7527C201.834 59.79 202.409 58.4731 202.43 57.0915C202.585 55.4084 201.5 53.9197 200.938 53.3857C200.107 52.5827 198.987 52.1381 197.824 52.1498C196.661 52.1615 195.551 52.6286 194.737 53.4482Z" fill="white" stroke="#B8C0CC" stroke-width="1.88" stroke-linecap="round" stroke-linejoin="round"/>
<path d="M192.965 55.926L198.644 61.6218" stroke="#B8C0CC" stroke-width="1.88" stroke-linecap="round" stroke-linejoin="round"/>
<path d="M174.8 73.6963L180.478 79.3921" stroke="#B8C0CC" stroke-width="1.88" stroke-linecap="round" stroke-linejoin="round"/>
<path d="M128.766 72.238L139.588 60.4467L140.572 72.7293L128.766 72.238Z" stroke="#B8C0CC" stroke-width="1.88" stroke-linecap="round" stroke-linejoin="round"/>
<path d="M449.546 180.8H378.56C376.357 180.8 374.555 179 374.555 176.8V118C374.555 115.8 376.357 114 378.56 114H449.546C451.749 114 453.551 115.8 453.551 118V176.8C453.551 179 451.749 180.8 449.546 180.8Z" fill="white" stroke="#B8C0CC" stroke-width="1.8833" stroke-miterlimit="10" stroke-linecap="round" stroke-linejoin="round"/>
<path d="M448.245 180.7V159.1C448.245 143.4 435.53 130.7 419.811 130.7H419.911C404.292 130.7 391.476 143.4 391.476 159V159.1C391.476 167.7 395.281 175.7 401.288 180.7" fill="white"/>
<path d="M448.245 180.7V159.1C448.245 143.4 435.53 130.7 419.811 130.7H419.911C404.292 130.7 391.476 143.4 391.476 159V159.1C391.476 167.7 395.281 175.7 401.288 180.7" stroke="#D1DAE5" stroke-width="1.88" stroke-miterlimit="10" stroke-linecap="round" stroke-linejoin="round"/>
<path opacity="0.6" d="M443.239 159.001V180.801H448.245V159.001C448.245 143.401 435.73 130.801 420.011 130.801H420.111C418.609 130.801 417.108 130.801 415.706 131.101C427.42 130.701 443.239 139.201 443.239 159.001Z" fill="#EAEFF4"/>
<path d="M413.503 154.7C414.443 154.7 415.205 153.491 415.205 152C415.205 150.509 414.443 149.3 413.503 149.3C412.563 149.3 411.801 150.509 411.801 152C411.801 153.491 412.563 154.7 413.503 154.7Z" fill="#B8C0CC"/>
<path d="M404.392 154.7C405.332 154.7 406.094 153.491 406.094 152C406.094 150.509 405.332 149.3 404.392 149.3C403.452 149.3 402.69 150.509 402.69 152C402.69 153.491 403.452 154.7 404.392 154.7Z" fill="#B8C0CC"/>
<path d="M431.024 161C429.122 161 427.52 159.4 427.52 157.5V155C427.52 153.1 429.122 151.5 431.024 151.5C432.927 151.5 434.529 153.1 434.529 155V157.5C434.529 159.4 432.927 161 431.024 161Z" stroke="#D1DAE5" stroke-width="1.8833" stroke-miterlimit="10" stroke-linecap="round" stroke-linejoin="round"/>
<path d="M431.024 151.4C431.024 137.8 417.508 128.5 408.096 133.3" stroke="#D1DAE5" stroke-width="1.8833" stroke-miterlimit="10" stroke-linecap="round" stroke-linejoin="round"/>
<path d="M448.245 181V159.4C448.245 143.7 435.53 131 419.811 131H419.911C404.292 131 391.476 143.7 391.476 159.3V159.4C391.476 168 395.281 176 401.288 181" stroke="#D1DAE5" stroke-width="1.88" stroke-miterlimit="10" stroke-linecap="round" stroke-linejoin="round"/>
<path d="M449.546 180.8H378.56C376.357 180.8 374.555 179 374.555 176.8V118C374.555 115.8 376.357 114 378.56 114H449.546C451.749 114 453.551 115.8 453.551 118V176.8C453.551 179 451.749 180.8 449.546 180.8Z" stroke="#B8C0CC" stroke-width="1.8833" stroke-miterlimit="10" stroke-linecap="round" stroke-linejoin="round"/>
<rect x="381.098" y="120.644" width="10.5252" height="8.08646" fill="white"/>
<path d="M390.814 120.913V128.461H381.368V120.913H390.814ZM391.759 119.026H380.423C379.904 119.026 379.479 119.451 379.479 119.97V129.405C379.479 129.924 379.904 130.348 380.423 130.348H391.759C392.279 130.348 392.704 129.924 392.704 129.405V126.102L396.482 129.876V119.498L392.704 123.272V119.97C392.704 119.451 392.279 119.026 391.759 119.026Z" fill="#B8C0CC"/>
<defs>
<filter id="filter0_d" x="82.9983" y="189.529" width="60.0737" height="60.0386" filterUnits="userSpaceOnUse" color-interpolation-filters="sRGB">
<feFlood flood-opacity="0" result="BackgroundImageFix"/>
<feColorMatrix in="SourceAlpha" type="matrix" values="0 0 0 0 0 0 0 0 0 0 0 0 0 0 0 0 0 0 127 0"/>
<feOffset dx="2" dy="4"/>
<feGaussianBlur stdDeviation="7.5"/>
<feColorMatrix type="matrix" values="0 0 0 0 0.85098 0 0 0 0 0.203922 0 0 0 0 0.392157 0 0 0 0.25 0"/>
<feBlend mode="normal" in2="BackgroundImageFix" result="effect1_dropShadow"/>
<feBlend mode="normal" in="SourceGraphic" in2="effect1_dropShadow" result="shape"/>
</filter>
</defs>
</svg>
