<svg width="31" height="32" viewBox="0 0 31 32" fill="none" xmlns="http://www.w3.org/2000/svg">
<path d="M14.7093 10.8813L8.61754 6.74225" stroke="#D93464" stroke-width="2" stroke-miterlimit="10" stroke-linecap="round"/>
<path d="M19.8725 22.3019L11.4581 27.4011" stroke="#D93464" stroke-width="2" stroke-miterlimit="10" stroke-linecap="round"/>
<path d="M8.31034 4.65517C8.31034 6.67387 6.67387 8.31034 4.65517 8.31034C2.63648 8.31034 1 6.67387 1 4.65517C1 2.63648 2.63648 1 4.65517 1C6.67387 1 8.31034 2.63648 8.31034 4.65517Z" stroke="#D93464" stroke-width="2" stroke-miterlimit="10" stroke-linecap="round"/>
<path d="M11 26C11 28.7614 8.76142 31 6 31C3.23858 31 1 28.7614 1 26C1 23.2386 3.23858 21 6 21C8.76142 21 11 23.2386 11 26Z" stroke="#D93464" stroke-width="2" stroke-miterlimit="10" stroke-linecap="round"/>
<path d="M24.2667 12.1246C26.4838 11.5305 27.7995 9.25166 27.2055 7.03458C26.6114 4.81751 24.3325 3.5018 22.1154 4.09586C19.8984 4.68993 18.5827 6.9688 19.1767 9.18587C19.7708 11.4029 22.0497 12.7187 24.2667 12.1246Z" stroke="#D93464" stroke-width="2" stroke-linecap="round" stroke-linejoin="round"/>
<path d="M29.9301 20.6207V19.8096C29.9452 18.8354 29.7825 17.8675 29.4514 16.9626C29.1204 16.0577 28.6276 15.2338 28.0017 14.539C27.3759 13.8441 26.6297 13.2922 25.8065 12.9155C24.9832 12.5388 24.0995 12.3448 23.2069 12.3448C22.3143 12.3448 21.4306 12.5388 20.6074 12.9155C19.7842 13.2922 19.0379 13.8441 18.4121 14.539C17.7862 15.2338 17.2934 16.0577 16.9624 16.9626C16.6313 17.8675 16.4686 18.8354 16.4838 19.8096V20.6207" stroke="#D93464" stroke-width="2" stroke-linecap="round" stroke-linejoin="round"/>
</svg>
