<svg width="34" height="32" viewBox="0 0 34 32" fill="none" xmlns="http://www.w3.org/2000/svg">
<circle cx="16.989" cy="6" r="5" fill="#F0F4F7" stroke="#D93464" stroke-width="2"/>
<mask id="path-2-inside-1" fill="white">
<path fill-rule="evenodd" clip-rule="evenodd" d="M1.20746 13.7083C-0.402487 12.1955 -0.402486 9.74289 1.20746 8.23016L1.3096 8.13418C2.91955 6.62145 5.52979 6.62145 7.13973 8.13418L13.6141 14.2176C13.6456 14.2473 13.6874 14.2634 13.7307 14.2634H19.9406C20.1951 14.2634 20.4399 14.1664 20.6254 13.9922L26.8598 8.13418C28.4698 6.62145 31.08 6.62145 32.69 8.13418L32.7921 8.23016C34.4021 9.74289 34.4021 12.1955 32.7921 13.7083L26.9331 19.2135C26.7023 19.4304 26.5932 19.7438 26.6037 20.0604C26.606 20.1278 26.6071 20.1955 26.6071 20.2634V26C26.6071 29.3137 23.9208 32 20.6071 32H13.7308C10.417 32 7.73075 29.3137 7.73075 26V20.2634C7.73075 20.002 7.63426 19.747 7.44375 19.568L1.20746 13.7083Z"/>
</mask>
<path fill-rule="evenodd" clip-rule="evenodd" d="M1.20746 13.7083C-0.402487 12.1955 -0.402486 9.74289 1.20746 8.23016L1.3096 8.13418C2.91955 6.62145 5.52979 6.62145 7.13973 8.13418L13.6141 14.2176C13.6456 14.2473 13.6874 14.2634 13.7307 14.2634H19.9406C20.1951 14.2634 20.4399 14.1664 20.6254 13.9922L26.8598 8.13418C28.4698 6.62145 31.08 6.62145 32.69 8.13418L32.7921 8.23016C34.4021 9.74289 34.4021 12.1955 32.7921 13.7083L26.9331 19.2135C26.7023 19.4304 26.5932 19.7438 26.6037 20.0604C26.606 20.1278 26.6071 20.1955 26.6071 20.2634V26C26.6071 29.3137 23.9208 32 20.6071 32H13.7308C10.417 32 7.73075 29.3137 7.73075 26V20.2634C7.73075 20.002 7.63426 19.747 7.44375 19.568L1.20746 13.7083Z" fill="#F0F4F7"/>
<path d="M1.20746 8.23016L2.57699 9.68769H2.57699L1.20746 8.23016ZM1.20746 13.7083L-0.162065 15.1658H-0.162065L1.20746 13.7083ZM1.3096 8.13418L-0.0599254 6.67665L-0.0599255 6.67665L1.3096 8.13418ZM7.13973 8.13418L5.77021 9.59172L7.13973 8.13418ZM26.8598 8.13418L25.4903 6.67665V6.67665L26.8598 8.13418ZM32.69 8.13418L31.3205 9.59172L31.3205 9.59172L32.69 8.13418ZM32.7921 8.23016L34.1616 6.77262L34.1616 6.77262L32.7921 8.23016ZM32.7921 13.7083L31.4226 12.2507V12.2507L32.7921 13.7083ZM7.44375 19.568L8.81327 18.1104L7.44375 19.568ZM26.9331 19.2135L25.5636 17.7559L26.9331 19.2135ZM26.6037 20.0604L28.6026 19.9939L26.6037 20.0604ZM20.6254 13.9922L21.9949 15.4497L20.6254 13.9922ZM13.6141 14.2176L12.2446 15.6751L13.6141 14.2176ZM-0.162064 6.77262C-2.61264 9.07523 -2.61265 12.8632 -0.162065 15.1658L2.57698 12.2507C1.80767 11.5279 1.80767 10.4105 2.57699 9.68769L-0.162064 6.77262ZM-0.0599255 6.67665L-0.162064 6.77262L2.57699 9.68769L2.67912 9.59172L-0.0599255 6.67665ZM8.50926 6.67665C6.12954 4.44063 2.31979 4.44063 -0.0599254 6.67665L2.67912 9.59172C3.5193 8.80227 4.93003 8.80227 5.77021 9.59172L8.50926 6.67665ZM14.9836 12.7601L8.50926 6.67665L5.77021 9.59172L12.2446 15.6751L14.9836 12.7601ZM19.9406 12.2634H13.7307V16.2634H19.9406V12.2634ZM25.4903 6.67665L19.2559 12.5347L21.9949 15.4497L28.2294 9.59172L25.4903 6.67665ZM34.0595 6.67665C31.6798 4.44063 27.87 4.44063 25.4903 6.67665L28.2294 9.59172C29.0696 8.80227 30.4803 8.80227 31.3205 9.59172L34.0595 6.67665ZM34.1616 6.77262L34.0595 6.67665L31.3205 9.59172L31.4226 9.68769L34.1616 6.77262ZM34.1616 15.1658C36.6122 12.8632 36.6122 9.07523 34.1616 6.77262L31.4226 9.68769C32.1919 10.4105 32.1919 11.5279 31.4226 12.2507L34.1616 15.1658ZM28.3026 20.671L34.1616 15.1658L31.4226 12.2507L25.5636 17.7559L28.3026 20.671ZM28.6071 20.2634C28.6071 20.1733 28.6056 20.0835 28.6026 19.9939L24.6048 20.1268C24.6063 20.1721 24.6071 20.2176 24.6071 20.2634H28.6071ZM28.6071 26V20.2634H24.6071V26H28.6071ZM20.6071 34C25.0254 34 28.6071 30.4183 28.6071 26H24.6071C24.6071 28.2092 22.8162 30 20.6071 30V34ZM13.7308 34H20.6071V30H13.7308V34ZM5.73075 26C5.73075 30.4183 9.31248 34 13.7308 34V30C11.5216 30 9.73075 28.2092 9.73075 26H5.73075ZM5.73075 20.2634V26H9.73075V20.2634H5.73075ZM-0.162065 15.1658L6.07422 21.0255L8.81327 18.1104L2.57698 12.2507L-0.162065 15.1658ZM9.73075 20.2634C9.73075 19.524 9.45704 18.7153 8.81327 18.1104L6.07422 21.0255C5.81148 20.7786 5.73075 20.48 5.73075 20.2634H9.73075ZM25.5636 17.7559C24.851 18.4255 24.5782 19.3271 24.6048 20.1268L28.6026 19.9939C28.6082 20.1604 28.5535 20.4353 28.3026 20.671L25.5636 17.7559ZM19.9406 16.2634C20.704 16.2634 21.4386 15.9725 21.9949 15.4497L19.2559 12.5347C19.4413 12.3604 19.6862 12.2634 19.9406 12.2634V16.2634ZM12.2446 15.6751C12.6554 16.0612 13.1902 16.2634 13.7307 16.2634V12.2634C14.1846 12.2634 14.6359 12.4333 14.9836 12.7601L12.2446 15.6751Z" fill="#D93464" mask="url(#path-2-inside-1)"/>
<path d="M19.9871 16C20.1386 18.963 21.3507 25.5111 24.9871 28" stroke="#D93464" stroke-width="2" stroke-linecap="round"/>
<path d="M13.9871 16C13.8524 18.963 13.2194 25.5111 9.98706 28" stroke="#D93464" stroke-width="2" stroke-linecap="round"/>
</svg>
