<svg width="36" height="32" viewBox="0 0 36 32" fill="none" xmlns="http://www.w3.org/2000/svg">
<path d="M5 5C5 2.79086 6.79086 1 9 1H31C33.2091 1 35 2.79086 35 5V21C35 23.2091 33.2091 25 31 25H9C6.79086 25 5 23.2091 5 21V5Z" stroke="#D93464" stroke-width="2"/>
<circle cx="10" cy="22" r="10" fill="#F0F4F7"/>
<circle cx="15" cy="9" r="2" fill="#D93464"/>
<circle cx="25" cy="9" r="2" fill="#D93464"/>
<circle cx="25" cy="17" r="2" fill="#D93464"/>
<path d="M9.99 12C4.47 12 0 16.48 0 22C0 27.52 4.47 32 9.99 32C15.52 32 20 27.52 20 22C20 16.48 15.52 12 9.99 12ZM10 30C5.58 30 2 26.42 2 22C2 17.58 5.58 14 10 14C14.42 14 18 17.58 18 22C18 26.42 14.42 30 10 30Z" fill="#D93464"/>
<path d="M10.5 17.75C10.5 17.3358 10.1642 17 9.75 17C9.33579 17 9 17.3358 9 17.75V22.4338C9 22.7851 9.1843 23.1106 9.4855 23.2913L13.6383 25.783C13.9768 25.9861 14.4159 25.878 14.6214 25.5409C14.8298 25.1992 14.7188 24.7531 14.3746 24.5489L10.9897 22.5406C10.6861 22.3604 10.5 22.0336 10.5 21.6806V17.75Z" fill="#D93464" stroke="#D93464" stroke-width="0.5"/>
</svg>
